<?xml version="1.0" encoding="UTF-8" standalone="no"?>
<svg
   version="1.1"
   width="20.000002"
   height="20"
   id="svg4"
   sodipodi:docname="circle.svg"
   inkscape:version="1.2.2 (b0a84865, 2022-12-01)"
   xmlns:inkscape="http://www.inkscape.org/namespaces/inkscape"
   xmlns:sodipodi="http://sodipodi.sourceforge.net/DTD/sodipodi-0.dtd"
   xmlns="http://www.w3.org/2000/svg"
   xmlns:svg="http://www.w3.org/2000/svg">
  <defs
     id="defs8" />
  <sodipodi:namedview
     id="namedview6"
     pagecolor="#505050"
     bordercolor="#eeeeee"
     borderopacity="1"
     inkscape:showpageshadow="0"
     inkscape:pageopacity="0"
     inkscape:pagecheckerboard="0"
     inkscape:deskcolor="#505050"
     showgrid="false"
     inkscape:zoom="0.14407814"
     inkscape:cx="-270.68645"
     inkscape:cy="458.08476"
     inkscape:window-width="1309"
     inkscape:window-height="430"
     inkscape:window-x="0"
     inkscape:window-y="25"
     inkscape:window-maximized="0"
     inkscape:current-layer="svg4" />
  <path
     d="m 16.284971,2.8016072 c 0.0675,0.056883 0.136281,0.1114249 0.206286,0.1655471 0.109506,0.087124 0.200184,0.1843707 0.292956,0.2868885 0.07598,0.080391 0.156521,0.1547587 0.238548,0.2297415 0.179713,0.1669207 0.337717,0.3449878 0.494321,0.5309808 0.03055,0.035512 0.06113,0.071004 0.09173,0.1064779 0.753501,0.8789394 1.330611,1.8600331 1.763067,2.9112966 0.01036,0.024926 0.02072,0.049853 0.03139,0.075534 0.803599,1.9704321 0.809269,4.1499844 -0.06639,6.0912234 -0.08555,0.178935 -0.180743,0.352277 -0.279969,0.52483 -0.01832,0.03281 -0.03663,0.06562 -0.0555,0.09943 -0.586765,1.035933 -1.50034,2.031771 -2.484042,2.756513 -0.08258,0.0615 -0.160408,0.125933 -0.238275,0.192583 -0.196423,0.16495 -0.405552,0.313641 -0.616807,0.461277 -0.02296,0.01611 -0.04592,0.03223 -0.06958,0.04883 -2.552321,1.783524 -6.0933201,3.061647 -9.3200548,2.634448 C 4.6033232,19.677254 2.9980505,18.884128 1.9842036,17.591668 1.8063245,17.359601 1.6421685,17.120132 1.4888494,16.87311 1.4670601,16.838099 1.4452711,16.803088 1.4228214,16.767016 -0.12775566,14.160997 -0.36035784,10.82612 0.47929298,7.9822572 0.64235679,7.4497824 0.84350795,6.9394474 1.1038918,6.4421057 1.1262988,6.3991585 1.1262988,6.3991585 1.1491578,6.355344 1.5074287,5.6757477 1.9529135,5.094953 2.5037373,4.5395955 2.5255263,4.5173965 2.5473163,4.4951975 2.5697653,4.4723257 3.2006474,3.8537268 4.2319326,3.2756518 5.1437588,3.1824167 5.3732043,3.2050546 5.5967222,3.3012831 5.7583785,3.4571328 5.881328,3.6497209 5.9526361,3.8199064 5.9333592,4.047567 5.832761,4.3760472 5.6477627,4.5391697 5.3384248,4.703605 5.165905,4.7826543 4.9898528,4.8542753 4.8141662,4.9268757 3.5623963,5.452394 2.8825748,6.5520996 2.3943745,7.7070286 2.0520524,8.5780893 1.8680955,9.5191247 1.8038146,10.443937 c -0.00234,0.03215 -0.00469,0.0643 -0.00711,0.09743 -0.1364681,1.994003 0.3067394,4.555769 1.6869231,6.167734 0.024361,0.02981 0.048721,0.05962 0.07382,0.09033 0.7185113,0.858543 1.8463539,1.366081 2.9910763,1.501583 0.7048222,0.06631 1.4170888,0.02261 2.1145321,-0.08303 0.054059,-0.0082 0.054059,-0.0082 0.1092093,-0.01653 2.4290216,-0.380335 4.6940796,-1.335635 6.5400576,-2.870039 0.04811,-0.03897 0.09622,-0.07792 0.144359,-0.116856 0.405965,-0.33498 0.805157,-0.674221 1.143116,-1.071572 0.0507,-0.05953 0.102261,-0.118417 0.154749,-0.176566 0.932264,-1.034778 1.477689,-2.359617 1.475579,-3.71725 -3.1e-5,-0.02202 -7e-5,-0.04404 -1.05e-4,-0.06672 -0.0019,-0.4157226 -0.05285,-0.8095143 -0.153015,-1.2146023 -0.0088,-0.036401 -0.01764,-0.072802 -0.02673,-0.1103059 C 17.866268,8.1079977 17.631525,7.3967193 17.27209,6.7045179 17.25956,6.6803419 17.24702,6.6561659 17.2341,6.6312579 16.693456,5.60292 15.860542,4.624214 14.927347,3.8835543 c -0.03014,-0.024567 -0.06027,-0.049134 -0.09132,-0.074445 -1.651944,-1.3238292 -3.73043,-2.3728785 -5.955371,-2.2147688 -0.2033034,0.019356 -0.4024647,0.053137 -0.6025555,0.091487 -0.031731,0.00582 -0.063462,0.011639 -0.096154,0.017634 -0.3945895,0.073695 -0.7803362,0.1673615 -1.1642537,0.2795048 -0.04563,0.013326 -0.04563,0.013326 -0.092183,0.026921 -0.152082,0.044641 -0.3038617,0.090026 -0.4553585,0.1363786 -0.056489,0.016939 -0.1129795,0.033876 -0.1694696,0.050813 -0.038012,0.011979 -0.038012,0.011979 -0.076791,0.024201 C 5.9316082,2.3081543 5.6517458,2.3035177 5.3734208,2.1778585 5.1575104,2.0547279 5.029897,1.8770926 4.9534672,1.6530281 4.9123362,1.415448 4.9482272,1.2254327 5.0628301,1.0117254 5.2592739,0.77120969 5.4773107,0.65902293 5.7824382,0.57261557 c 0.054308,-0.0160982 0.054308,-0.0160982 0.1097133,-0.0325216 0.1184269,-0.0345875 0.2371964,-0.067849 0.3561728,-0.10073611 0.04094,-0.0113954 0.081879,-0.0227909 0.1240585,-0.0345317 3.7451512,-1.03155321 7.0577262,-0.0413249 9.9125882,2.39678104 z"
     fill="#000000"
     id="path2"
     style="fill:#ffffff;fill-opacity:1;stroke-width:0.0338813" />
</svg>
