<?xml version="1.0" encoding="UTF-8" standalone="no"?>
<svg
   version="1.1"
   width="18.003201"
   height="17.999374"
   id="svg8"
   sodipodi:docname="fillcircle.svg"
   inkscape:version="1.2.2 (b0a84865, 2022-12-01)"
   xmlns:inkscape="http://www.inkscape.org/namespaces/inkscape"
   xmlns:sodipodi="http://sodipodi.sourceforge.net/DTD/sodipodi-0.dtd"
   xmlns="http://www.w3.org/2000/svg"
   xmlns:svg="http://www.w3.org/2000/svg">
  <defs
     id="defs12" />
  <sodipodi:namedview
     id="namedview10"
     pagecolor="#505050"
     bordercolor="#eeeeee"
     borderopacity="1"
     inkscape:showpageshadow="0"
     inkscape:pageopacity="0"
     inkscape:pagecheckerboard="0"
     inkscape:deskcolor="#505050"
     showgrid="false"
     inkscape:zoom="7.0902012"
     inkscape:cx="13.680853"
     inkscape:cy="6.2057477"
     inkscape:window-width="1309"
     inkscape:window-height="430"
     inkscape:window-x="0"
     inkscape:window-y="25"
     inkscape:window-maximized="0"
     inkscape:current-layer="svg8" />
  <path
     d="m 11.662523,0.11161621 c 0.1819,0.10791 0.3056,0.27099 0.3463,0.45454 0.037,0.47858999 -0.4357,0.89570999 -0.7595,1.26175999 -0.1173,0.13337 -0.2212,0.26709 -0.3159,0.41254 -0.024,0 -0.049,0 -0.074,0 -0.01,0.021 -0.016,0.042 -0.025,0.0637 -0.064,0.11794 -0.1516,0.21058 -0.2464,0.31224 -0.1722,0.18784 -0.3355,0.37931 -0.4937,0.57554 -0.1378998,0.17086 -0.2781998,0.33821 -0.4310998,0.49996 -0.1487,0.15762 -0.2794,0.32061 -0.4036,0.49213 -0.034,0.0456 -0.07,0.0898 -0.1063,0.13379 -0.024,0 -0.049,0 -0.074,0 -0.01,0.0215 -0.017,0.043 -0.026,0.0652 -0.057,0.10731 -0.1347,0.19478 -0.2193,0.28753 -0.2595,0.29018 -0.5049,0.58828 -0.7515,0.88618 -0.079,0.0947 -0.1574,0.18907 -0.2365,0.28342 -0.2407,0.28758 -0.4788,0.57542 -0.7031,0.87215 -0.079,0.10391 -0.1636,0.20382 -0.2512,0.30303 0.018,-0.0195 0.037,-0.039 0.056,-0.0591 0.138,-0.14534 0.2778,-0.28823 0.4249,-0.42717 0.2338,-0.2221 0.4643,-0.44678 0.6874,-0.67643 0.1806,-0.18576 0.3671,-0.367 0.554,-0.5483 0.058,-0.0564 0.1158,-0.11295 0.1735,-0.16955 0.1692,-0.16578 0.3389,-0.33053 0.5148,-0.49136 0.088,-0.0809 0.1686,-0.1595 0.2388,-0.25192 0.029,-0.0365 0.029,-0.0365 0.058,-0.0736 0.024,0 0.049,0 0.074,0 0.01,-0.0169 0.017,-0.0338 0.025,-0.0512 0.063,-0.0944 0.1479,-0.16747 0.2366,-0.24526 0.1329998,-0.11856 0.2595998,-0.23847 0.3800998,-0.36625 0.3581,-0.36899 0.961,-0.98892 1.5605,-1.05188 0.2908,-10e-4 0.5031,0.0342 0.7201,0.20311 0.2033,0.18627 0.2418,0.35544 0.237,0.60133 -0.01,0.073 -0.01,0.073 -0.045,0.13504 0.042,-0.0303 0.083,-0.0607 0.1251,-0.0911 0.027,-0.0197 0.054,-0.0393 0.082,-0.0596 0.061,-0.0454 0.1217,-0.0917 0.1814,-0.13856 0.2655,-0.20759 0.4844,-0.34653 0.8559,-0.36455 0.2707,0.008 0.4566,0.12223 0.6497,0.2742 0.1598,0.15591 0.196,0.3286 0.1924,0.53104 -0.018,0.11725 -0.082,0.21021 -0.1513,0.31168 -0.015,0.0227 -0.03,0.0453 -0.045,0.0687 -0.2806,0.41867 -0.6104,0.81076 -0.9439,1.20075 -0.074,0.087 -0.1477,0.17446 -0.2212,0.26189 -0.1959,0.23292 -0.3944,0.46416 -0.5942,0.6948 -0.1967,0.22737 -0.3911,0.45586 -0.5756,0.69034 0.012,-0.0102 0.024,-0.0205 0.037,-0.031 0.022,-0.0183 0.045,-0.0365 0.068,-0.0553 0.1839,-0.15192 0.3584,-0.30721 0.5259,-0.47174 0.035,-0.0344 0.071,-0.0689 0.1059,-0.10331 0.019,-0.0186 0.038,-0.0371 0.058,-0.0562 0.029,-0.0285 0.029,-0.0285 0.059,-0.0575 0.039,-0.0379 0.078,-0.0757 0.1164,-0.11361 0.018,-0.0179 0.037,-0.0358 0.056,-0.0542 0.042,-0.0412 0.084,-0.0824 0.1264,-0.12363 0.06,-0.0586 0.1216,-0.11636 0.1837,-0.17368 0.021,-0.0195 0.042,-0.039 0.063,-0.0591 0.1528,-0.1356 0.3195,-0.24706 0.4999,-0.35559 0.022,-0.0133 0.044,-0.0266 0.067,-0.0403 0.2578,-0.15132 0.4665,-0.19917 0.7792,-0.1651 0.2986,0.0837 0.4548,0.25648 0.6073,0.47671 0.097,0.34203 -0.071,0.59685 -0.2791,0.88436 -0.1055,0.14016 -0.2167,0.2771 -0.3282,0.41399 -0.032,0.0402 -0.065,0.0804 -0.097,0.12063 -0.157,0.19487 -0.3158,0.38847 -0.4788,0.57987 -0.075,0.0915 -0.1437,0.1848 -0.2029,0.28392 0.021,-0.0183 0.043,-0.0365 0.065,-0.0553 0.082,-0.0693 0.1634,-0.13846 0.2453,-0.20751 0.052,-0.044 0.1039,-0.0881 0.1557,-0.13228 0.8518,-0.71722 0.8518,-0.71722 1.3001,-0.73269 0.2463,0.003 0.4213,0.0806 0.6007,0.21873 0.1827,0.1665 0.2558,0.34167 0.2501,0.56755 -0.043,0.18985 -0.1668,0.35709 -0.2764,0.52526 -0.052,0.0801 -0.1,0.16131 -0.1476,0.24289 -0.2612,0.4444 -0.5353,0.88417 -0.8309,1.31327 -0.056,0.0811 -0.1028,0.15553 -0.1383,0.24447 -0.024,0 -0.049,0 -0.074,0 -0.011,0.0359 -0.011,0.0359 -0.023,0.0725 -0.071,0.1573598 -0.1717,0.2963798 -0.2735,0.4409798 -0.04,0.0575 -0.081,0.115 -0.1205,0.17259 -0.018,0.0253 -0.036,0.0506 -0.054,0.0766 -0.048,0.0748 -0.086,0.14995 -0.1223,0.22944 -0.024,0 -0.049,0 -0.074,0 -0.01,0.0252 -0.017,0.0504 -0.026,0.0763 -0.059,0.13467 -0.1391,0.25303 -0.2243,0.37716 -0.1473,0.21792 -0.287,0.43719 -0.4171,0.66274 0.016,-0.015 0.031,-0.0301 0.048,-0.0455 0.046,-0.044 0.092,-0.088 0.1382,-0.13202 0.046,-0.0437 0.091,-0.0875 0.137,-0.13129 0.1181,-0.11329 0.2376,-0.22531 0.3586,-0.33645 0.1146,-0.10603 0.2243,-0.21416 0.3314,-0.32556 0.1475,-0.15269 0.3037,-0.29693 0.4645,-0.43981 0.081,-0.0724 0.1595,-0.14509 0.2336,-0.22281 0.107,-0.11126 0.2356,-0.19701 0.3657,-0.2888598 0.036,-0.0259 0.071,-0.0518 0.1078,-0.0785 0.3032,-0.21917 0.5278,-0.37668 0.9442,-0.36407 0.1272,0.0111 0.2368,0.0347 0.3572,0.0705 0,0.0205 0,0.0409 0,0.062 0.021,0.006 0.041,0.0115 0.063,0.0174 0.1555,0.0808 0.251,0.21111 0.3082,0.3546198 0.024,0.16178 0.048,0.33021 -0.049,0.47671 -0.045,0.0474 -0.091,0.0946 -0.1366,0.14158 -0.1,0.1276 -0.1502,0.26057 -0.2063,0.40489 -0.079,0.20173 -0.1607,0.38042 -0.3021,0.55846 -0.069,0.0885 -0.1132,0.18062 -0.1591,0.27869 -0.024,0 -0.049,0 -0.074,0 -0.01,0.0224 -0.02,0.0448 -0.03,0.0678 -0.044,0.0872 -0.044,0.0872 -0.1066,0.16084 -0.067,0.11112 -0.039,0.17759 -0.012,0.29843 0.024,0.30961 -0.085,0.48101 -0.325,0.71201 -0.1327,0.12846 -0.2504,0.26266 -0.3657,0.40225 -0.2025,0.24477 -0.4166,0.48128 -0.6348,0.71644 -0.036,0.0394 -0.036,0.0394 -0.074,0.0796 -0.022,0.0233 -0.043,0.0466 -0.066,0.0705 -0.052,0.0613 -0.092,0.12131 -0.13,0.18951 -0.024,0 -0.049,0 -0.074,0 -0.01,0.0183 -0.021,0.0366 -0.031,0.0555 -0.04,0.0646 -0.084,0.11676 -0.1382,0.17346 -0.018,0.0189 -0.036,0.0378 -0.054,0.0573 -0.019,0.0194 -0.037,0.0388 -0.057,0.0587 -0.1314,0.13093 -0.1314,0.13093 -0.2387,0.27518 -0.024,0 -0.049,0 -0.074,0 -0.012,0.0248 -0.012,0.0248 -0.025,0.0501 -0.066,0.0988 -0.1528,0.1793 -0.2415,0.26379 -0.1554,0.14999 -0.2958,0.3029 -0.4255,0.46956 -0.025,0.0266 -0.025,0.0266 -0.05,0.0537 -0.024,0 -0.049,0 -0.074,0 -0.01,0.0182 -0.021,0.0363 -0.031,0.055 -0.041,0.0657 -0.086,0.1217 -0.1385,0.18092 -0.019,0.0207 -0.037,0.0415 -0.056,0.0628 -0.097,0.10746 -0.195,0.21468 -0.2935,0.32135 -0.038,0.0412 -0.038,0.0412 -0.077,0.0833 -0.1615,0.16542 -0.3209,0.26809 -0.5774,0.30145 -0.2525,0.0115 -0.4492,-0.0296 -0.6439,-0.16774 -0.086,-0.0883 -0.1566,-0.17983 -0.2225,-0.27905 -0.1453,0.10173 -0.2859,0.20628 -0.4239,0.31494 -0.1912,0.15004 -0.3862,0.2944 -0.5912,0.43113 -0.021,0.014 -0.041,0.0281 -0.063,0.0425 -0.2205,0.14445 -0.4337,0.22462 -0.7185998,0.21629 -0.256,-0.0344 -0.452,-0.16256 -0.6082,-0.33052 -0.1202,-0.15251 -0.1384,-0.31006 -0.1169,-0.48834 0.036,-0.12906 0.084,-0.25407 0.1344,-0.37981 0.014,-0.0347 0.027,-0.0693 0.041,-0.10505 0.081,-0.20178 0.1665,-0.39145 0.2888,-0.57816 0.064,-0.0989 0.1198,-0.20066 0.1754,-0.30315 0.1195998,-0.21808 0.2523998,-0.42982 0.3879998,-0.64119 0.015,-0.0239 0.031,-0.0478 0.046,-0.0724 0.021,-0.0318 0.021,-0.0318 0.042,-0.0643 0.039,-0.0618 0.039,-0.0618 0.071,-0.15028 0.024,0 0.049,0 0.074,0 0.013,-0.0355 0.013,-0.0355 0.025,-0.0717 0.067,-0.15629 0.1503,-0.30512 0.2341,-0.45539 0.024,0 0.049,0 0.074,0 0.013,-0.0365 0.013,-0.0365 0.025,-0.0736 0.1328,-0.3065 0.342,-0.5899 0.53,-0.87451 0.019,-0.0293 0.038,-0.0585 0.058,-0.0887 0.018,-0.0265 0.035,-0.0529 0.053,-0.0801 0.041,-0.0543 0.041,-0.0543 0.038,-0.0922 -0.024,0.0307 -0.049,0.0614 -0.074,0.093 -0.024,0 -0.049,0 -0.074,0 -0.01,0.0183 -0.02,0.0366 -0.031,0.0555 -0.043,0.0668 -0.087,0.11681 -0.1469,0.17345 -0.03,0.0284 -0.03,0.0284 -0.06,0.0573 -0.02,0.0194 -0.041,0.0388 -0.062,0.0587 -0.041,0.0388 -0.081,0.0776 -0.1218,0.11651 -0.018,0.0171 -0.036,0.0342 -0.054,0.0517 -0.047,0.0452 -0.047,0.0452 -0.081,0.10693 -0.024,0 -0.049,0 -0.074,0 -0.01,0.0163 -0.016,0.0327 -0.024,0.0495 -0.068,0.10247 -0.1592,0.18638 -0.2513,0.27408 -0.04,0.039 -0.081,0.078 -0.1214,0.117 -0.031,0.0295 -0.031,0.0295 -0.062,0.0596 -0.09,0.0865 -0.178,0.1739 -0.2663,0.26139 -0.034,0.0332 -0.067,0.0665 -0.1006998,0.0997 -0.016,0.0164 -0.033,0.0328 -0.05,0.0498 -0.052,0.0511 -0.1034,0.10204 -0.1552,0.15299 -0.1569,0.15452 -0.313,0.30941 -0.4657,0.4669 -0.1721,0.17678 -0.3508,0.34856 -0.5299,0.52043 -0.1,0.0958 -0.1986,0.19227 -0.2972,0.28898 -0.1829,0.17944 -0.369,0.35561 -0.5596,0.52939 -0.072,0.0659 -0.1425,0.13249 -0.2125,0.19984 -0.1346,0.12958 -0.2732,0.25611 -0.4117,0.38284 -0.073,0.0673 -0.1437,0.13532 -0.2141,0.20433 -0.1165,0.11184 -0.2393,0.21807 -0.3638,0.32361 -0.029,0.0244 -0.029,0.0244 -0.058,0.0493 -0.097,0.0811 -0.1825,0.13941 -0.3064,0.18713 -0.05,0.0351 -0.099,0.0713 -0.146,0.10852 -0.1996,0.14725 -0.3445,0.18439 -0.6097,0.1778 -0.201,-0.015 -0.3599,-0.0414 -0.5069,-0.16315 -0.2222,-0.23073 -0.2899,-0.41745 -0.2578,-0.71227 0.02,-0.072 0.046,-0.13842 0.078,-0.20728 0.031,-0.0674 0.057,-0.13502 0.082,-0.20391 0.057,-0.14301 0.1325,-0.2701 0.2216,-0.40077 0.016,-0.0236 0.032,-0.0471 0.048,-0.0714 0.3412,-0.49924 0.7237,-0.9765 1.1269,-1.442 -0.1066,0.0842 -0.1066,0.0842 -0.1855,0.18603 -0.024,0 -0.049,0 -0.074,0 -0.024,0.0409 -0.049,0.0819 -0.074,0.12403 -0.025,0 -0.049,0 -0.074,0 -0.013,0.0249 -0.013,0.0249 -0.026,0.0504 -0.1044,0.15805 -0.2612,0.29312 -0.4195,0.4147 -0.024,0 -0.049,0 -0.074,0 0,0.0205 0,0.0409 0,0.062 -0.025,0 -0.049,0 -0.074,0 0,0.0205 0,0.0409 0,0.062 -0.055,0.0454 -0.055,0.0454 -0.1302,0.098 -0.1064,0.0756 -0.2101,0.15235 -0.3109,0.23327 -0.8049,0.64528 -0.8049,0.64528 -1.2941,0.64033 -0.2544,-0.0223 -0.4547,-0.11513 -0.6173,-0.27977 -0.075,-0.0961 -0.1191,-0.18664 -0.1565,-0.2971 -0.01,-0.0276 -0.019,-0.0551 -0.029,-0.0835 -0.01,-0.0312 -0.01,-0.0312 -0.021,-0.0631 -0.016,0.0132 -0.032,0.0265 -0.048,0.0402 -1.1097,0.92781 -1.1097,0.92781 -1.1833,0.98926 -0.041,0.0344 -0.082,0.0691 -0.1225,0.10398 -0.1797,0.15437 -0.3652,0.21728 -0.61619998,0.24247 -0.2666,-0.0216 -0.4794,-0.12287 -0.6628,-0.28487 -0.1517,-0.15944 -0.1932,-0.29483 -0.1744,-0.49657 0.071,-0.42225 0.4406,-0.80771 0.7191,-1.15091 0.047,-0.0609 0.086,-0.12241 0.1228,-0.18765 0.024,0 0.049,0 0.074,0 0.013,-0.0315 0.013,-0.0315 0.026,-0.0636 0.061,-0.11455 0.14269998,-0.21252 0.22869998,-0.3143 0.037,-0.0444 0.074,-0.0887 0.1109,-0.1331 0.029,-0.0345 0.029,-0.0345 0.058,-0.0697 0.096,-0.11582 0.1905,-0.23265 0.2849,-0.34949 0.019,-0.023 0.037,-0.046 0.056,-0.0697 0.057,-0.0698 0.1129,-0.13959 0.1693,-0.2094 0.039,-0.0485 0.078,-0.097 0.1177,-0.14558 0.094,-0.11682 0.1888,-0.23366 0.2832,-0.35051 -0.1955,0.0545 -0.3188,0.13724 -0.4566,0.26355 -0.1951,0.16584 -0.3587,0.23163 -0.635,0.24804 -0.23489998,-0.008 -0.41359998,-0.0986 -0.58029998,-0.23278 -0.181,-0.16741 -0.2253,-0.273 -0.2286,-0.50166 0,-0.0592 0,-0.0592 0,-0.11954 0.014,-0.13989 0.058,-0.24301 0.1234,-0.37073 0.023,-0.0479 0.045,-0.0958 0.068,-0.14376 0.1995,-0.40574 0.4402,-0.78269 0.71049998,-1.15847 -0.1063,-0.001 -0.1063,-0.001 -0.1915,0.007 -0.26879998,0.015 -0.42259998,-0.0465 -0.62439998,-0.19257 -0.1686,-0.13414 -0.2476,-0.27043 -0.2704,-0.46423 0,-0.17043 0.087,-0.32461 0.1592,-0.48144 0.015,-0.0328 0.03,-0.0657 0.045,-0.0995 0.1082,-0.2327 0.2323,-0.4516698 0.38,-0.6684798 0.06,-0.0836 0.06,-0.0836 0.094,-0.17767 0.024,0 0.049,0 0.074,0 0.037,-0.0921 0.073,-0.18417 0.11129998,-0.27905 0.024,0 0.049,0 0.074,0 0.012,-0.0365 0.012,-0.0365 0.023,-0.0736 0.057,-0.12463 0.1313,-0.22901 0.2147,-0.34215 0.1295,-0.17683 0.2469,-0.35899 0.3555,-0.54538 0.024,0 0.049,0 0.074,0 0.04,-0.0822 0.078,-0.16382 0.1113,-0.24804 0.024,0 0.049,0 0.074,0 0.015,-0.0339 0.015,-0.0339 0.031,-0.0684 0.042,-0.0839 0.091,-0.15569 0.1488,-0.23245 0.021,-0.0276 0.042,-0.0551 0.063,-0.0835 0.034,-0.0438 0.034,-0.0438 0.068,-0.0884 0.023,-0.0304 0.046,-0.0608 0.071,-0.0921 0.2097,-0.27225 0.4301,-0.53712 0.6573,-0.79933 0.043,-0.05 0.086,-0.10004 0.1296,-0.15006 0.063,-0.0734 0.127,-0.14684 0.1907,-0.2201 0.1067,-0.12296 0.2105,-0.24686 0.3101,-0.37397 -0.043,-0.0788 -0.092,-0.14662 -0.1507,-0.21898 -0.085,-0.10783 -0.1154,-0.18894 -0.1205,-0.31586 0,-0.0225 0,-0.0451 0,-0.0683 0.038,-0.18916 0.1921,-0.33133 0.3449,-0.46654 0.018,-0.0157 0.035,-0.0314 0.053,-0.0475 0.038,-0.0338 0.076,-0.0676 0.1143,-0.10129 0.06,-0.0535 0.1199,-0.10747 0.1794,-0.16161 0.2378,-0.21595 0.4805,-0.42732 0.7283,-0.63525 0.026,-0.0215 0.051,-0.043 0.078,-0.0652 0.1453,-0.12116 0.2947,-0.23633 0.4501,-0.34838 0.086,-0.063 0.1684,-0.12883 0.2509,-0.19505 0.2064,-0.16479 0.4197,-0.31865 0.6469,-0.46302 0.024,-0.0151 0.047,-0.0303 0.071,-0.0459 0.2101,-0.13059 0.465,-0.2769 0.7377,-0.24869 0.1823,0.0239 0.3122,0.0765 0.4404,0.18797 0.1,0.11429 0.161,0.24108 0.2225,0.37207 0.2222,-0.21333 0.4418,-0.42742 0.6489,-0.65112 0.1375,-0.14836 0.2793,-0.29237 0.4265,-0.43407 0.1545,-0.14889 0.3041,-0.30026 0.4496,-0.45539 0.017,-0.0183 0.034,-0.0365 0.052,-0.0553 0.071,-0.0764 0.1388,-0.15289 0.2031,-0.23345 0.024,0 0.049,0 0.074,0 0.01,-0.0174 0.018,-0.0349 0.027,-0.0528 0.056,-0.0849 0.1235,-0.14741999 0.2021,-0.21848999 0.1059,-0.0965 0.2108,-0.1933 0.3128998,-0.29261 0.4449,-0.42502 0.912,-0.78192 1.5959,-0.47974 z"
     fill="#000000"
     id="path4"
     style="fill:#ffffff;fill-opacity:1;stroke-width:0.0339084" />
</svg>
