<?xml version="1.0" encoding="UTF-8" standalone="no"?>
<svg
   version="1.1"
   width="62.465637"
   height="45.000004"
   id="svg6"
   sodipodi:docname="heart-doodle.svg"
   inkscape:version="1.2.2 (b0a84865, 2022-12-01)"
   xmlns:inkscape="http://www.inkscape.org/namespaces/inkscape"
   xmlns:sodipodi="http://sodipodi.sourceforge.net/DTD/sodipodi-0.dtd"
   xmlns="http://www.w3.org/2000/svg"
   xmlns:svg="http://www.w3.org/2000/svg">
  <defs
     id="defs10" />
  <sodipodi:namedview
     id="namedview8"
     pagecolor="#505050"
     bordercolor="#eeeeee"
     borderopacity="1"
     inkscape:showpageshadow="0"
     inkscape:pageopacity="0"
     inkscape:pagecheckerboard="0"
     inkscape:deskcolor="#505050"
     showgrid="false"
     inkscape:zoom="0.14407814"
     inkscape:cx="589.95764"
     inkscape:cy="367.85594"
     inkscape:window-width="1309"
     inkscape:window-height="430"
     inkscape:window-x="0"
     inkscape:window-y="25"
     inkscape:window-maximized="0"
     inkscape:current-layer="svg6" />
  <path
     d="m 35.80018,0.96249763 c 1.387582,1.53112547 1.591577,3.65099777 1.575119,5.62802927 -4.42e-4,0.095661 -4.42e-4,0.095661 -8.9e-4,0.193254 -0.02867,5.3777961 -1.191546,10.6921911 -2.635894,15.8483071 -0.627763,2.244051 -1.197786,4.565356 -1.317004,6.899648 -0.03349,0.580487 -0.166486,1.053824 -0.613317,1.452178 -0.346747,0.206714 -0.678379,0.243792 -1.072757,0.18931 -0.390962,-0.116251 -0.663637,-0.354693 -0.883447,-0.694137 -0.259942,-0.587696 -0.04885,-1.254302 0.121277,-1.843061 0.03869,-0.1382 0.07738,-0.276403 0.116054,-0.414609 0.02045,-0.07222 0.04089,-0.144447 0.06196,-0.218859 1.622787,-5.747095 2.98517,-11.720526 3.108292,-17.716541 0.0014,-0.05959 0.0028,-0.11917 0.0042,-0.18056 0.03034,-1.4876385 -0.07077,-2.9704435 -0.256604,-4.4457041 -0.0079,-0.062838 -0.0079,-0.062838 -0.01598,-0.1269462 -0.05046,-0.3955741 -0.106039,-0.7887098 -0.180721,-1.1804762 -0.04489,-0.2378031 -0.06991,-0.4610986 -0.0636,-0.7039967 0.0011,-0.058161 0.0023,-0.1163221 0.0035,-0.1762457 0.0022,-0.063082 0.0022,-0.063082 0.0044,-0.1274392 -0.361556,0.00753 -0.55049,0.1064444 -0.81073,0.3556959 -2.178598,2.3921081 -3.063993,6.1463261 -3.87833,9.1920282 -0.48377,1.796698 -0.48377,1.796698 -0.93897,2.583894 -0.02355,0.0411 -0.04709,0.0822 -0.07135,0.124543 -0.30172,0.505984 -0.73139,1.115116 -1.294496,1.343842 -0.371907,0.08242 -0.740532,0.07956 -1.103076,-0.03673 -0.338798,-0.244249 -0.595177,-0.541208 -0.852635,-0.868164 -0.384452,-0.471498 -0.81112,-0.899393 -1.241608,-1.328621 -0.04203,-0.04202 -0.08406,-0.08404 -0.127367,-0.127328 C 22.866644,14.016074 22.29762,13.47251 21.631352,13.018071 21.507294,12.932639 21.386353,12.843793 21.265458,12.753949 16.083398,8.938786 9.7997977,6.9646888 3.4019731,7.9254952 3.1394978,7.9661458 2.8773274,8.008473 2.615246,8.0515789 2.415079,8.0839301 2.2146211,8.1128175 2.0137613,8.1405029 2.5020865,9.580583 3.3143112,10.705925 4.2854817,11.8636 c 0.052223,0.0632 0.1044455,0.126409 0.1582512,0.191529 0.5711995,0.68759 1.1782505,1.343116 1.8157003,1.969761 0.1136686,0.115735 0.219657,0.235881 0.3253765,0.3589 0.3190594,0.369819 0.6619718,0.715902 1.0333173,1.033318 0.2256904,0.193255 0.4342217,0.400109 0.6428653,0.611313 0.2424128,0.245077 0.4873932,0.481198 0.7500918,0.704736 0.1369122,0.118692 0.2699442,0.241128 0.4027306,0.364401 0.3223565,0.299108 0.6518853,0.583661 0.9946633,0.859459 0.220329,0.180902 0.434413,0.368215 0.648781,0.556098 0.340112,0.297356 0.687468,0.581692 1.044718,0.858135 0.251711,0.195393 0.496104,0.39763 0.737952,0.605074 0.330755,0.283134 0.670738,0.550991 1.017294,0.814428 0.218954,0.166475 0.435069,0.336432 0.651,0.506799 0.377358,0.297189 0.756772,0.591589 1.138294,0.883415 0.08987,0.06875 0.179687,0.137547 0.269484,0.206381 0.786422,0.602643 1.577843,1.197692 2.378423,1.781406 0.04689,0.03421 0.09379,0.06843 0.142106,0.103683 0.330102,0.240501 0.661531,0.479099 0.993754,0.71666 0.06571,0.04714 0.06571,0.04714 0.132739,0.09524 0.778911,0.557374 1.574869,1.089094 2.371675,1.620381 0.05215,0.03479 0.104297,0.06957 0.158026,0.105415 0.917619,0.611704 1.837583,1.220467 2.77628,1.799518 0.05465,0.03374 0.109295,0.06748 0.1656,0.10225 0.998906,0.614373 2.008983,1.209757 3.040839,1.767186 0.05436,0.02951 0.108716,0.05902 0.164721,0.08942 1.113625,0.601842 2.256365,1.114605 3.427732,1.592928 0.04836,0.01978 0.09672,0.03955 0.146542,0.05993 0.239551,0.09788 0.4793,0.195215 0.71948,0.291545 0.08839,0.03583 0.176774,0.07166 0.265155,0.107503 0.03997,0.01582 0.07993,0.03163 0.121113,0.04793 0.401445,0.163728 0.834888,0.38683 1.029044,0.793366 0.115471,0.343957 0.131029,0.738404 5.05e-4,1.080152 -0.195451,0.330569 -0.455791,0.609676 -0.826013,0.733083 -0.559448,0.05888 -0.952156,-0.04368 -1.443489,-0.303684 -0.06223,-0.03141 -0.124457,-0.06282 -0.18857,-0.09518 -0.129284,-0.06536 -0.258265,-0.131325 -0.38694,-0.197876 -0.17932,-0.09211 -0.359748,-0.181228 -0.541124,-0.269206 -0.849283,-0.413322 -1.671923,-0.86777 -2.488145,-1.342672 -0.102707,-0.05973 -0.102707,-0.05973 -0.207489,-0.12066 -1.410357,-0.822742 -2.780102,-1.699518 -4.138753,-2.604615 -0.05225,-0.0348 -0.104492,-0.06961 -0.158321,-0.105467 -0.690016,-0.46005 -1.376449,-0.924945 -2.058184,-1.397182 -0.05895,-0.04083 -0.117889,-0.08166 -0.178619,-0.123726 -0.745898,-0.518242 -1.48559,-1.044729 -2.219309,-1.580064 -0.04771,-0.03478 -0.09542,-0.06957 -0.144571,-0.105409 -1.418925,-1.036102 -2.807576,-2.111997 -4.187621,-3.199136 -0.14117,-0.111175 -0.282676,-0.2219 -0.424469,-0.332278 -0.453889,-0.353896 -0.900288,-0.71578 -1.34338,-1.08311 -0.28604,-0.23658 -0.575597,-0.467676 -0.868934,-0.695123 C 11.836248,21.479122 11.542376,21.227319 11.253729,20.961821 11.091108,20.815698 10.923597,20.677746 10.753586,20.54031 10.472196,20.312669 10.203244,20.074808 9.9359545,19.830891 9.7667909,19.680696 9.5927979,19.538398 9.4165843,19.396562 9.1775867,19.203216 8.9570456,19.003681 8.7433997,18.78303 8.6390931,18.678228 8.5309276,18.581821 8.4187627,18.485508 7.5970473,17.774768 6.8295472,17.004961 6.0626781,16.23625 5.8933454,16.066575 5.7236731,15.897244 5.5539693,15.727941 5.4446686,15.618598 5.3353875,15.509237 5.2261278,15.399853 5.1761645,15.350017 5.1262012,15.300182 5.0747246,15.248836 4.8116512,14.98466 4.5589475,14.715253 4.3156355,14.432757 4.2093916,14.309558 4.0996139,14.190301 3.9877247,14.072217 3.9287906,14.009745 3.9287906,14.009745 3.8686663,13.946011 3.8094887,13.883538 3.8094887,13.883538 3.7491152,13.819804 3.4363371,13.489614 3.1311996,13.154552 2.8341167,12.810151 2.8029619,12.774085 2.7718071,12.738018 2.7397077,12.70086 2.5502412,12.480961 2.3618222,12.260165 2.1733495,12.039415 2.0834216,11.934351 1.9930727,11.829666 1.9026027,11.725069 1.7267312,11.520936 1.5537958,11.314543 1.3827397,11.10636 1.3491037,11.065444 1.3154678,11.024528 1.2808127,10.982372 0.57981715,10.121001 -0.09679775,9.2493157 0.01146235,8.0835622 0.12053396,7.3404465 0.47915469,6.8004699 1.0783033,6.348713 2.1969085,5.5784742 3.5256586,5.3330265 4.8612996,5.265357 c 0.047505,-0.00272 0.09501,-0.00545 0.1439545,-0.00826 3.8316667,-0.2004942 7.6344589,0.7539811 11.0805529,2.3785767 0.06515,0.030504 0.130293,0.061008 0.197414,0.092436 2.085977,0.979338 4.034521,2.1217572 5.92361,3.4413513 0.05397,0.03769 0.107944,0.07539 0.163551,0.11422 0.601239,0.422103 1.179045,0.866011 1.745818,1.333213 0.276013,0.227154 0.558644,0.444802 0.842975,0.661398 0.216696,0.165146 0.432697,0.331183 0.648582,0.497386 0.03733,0.02873 0.07466,0.05745 0.113119,0.08705 0.09073,0.06982 0.181441,0.139651 0.272156,0.209484 0.02124,-0.0818 0.02124,-0.0818 0.04291,-0.165261 0.462194,-1.769231 0.985267,-3.51764 1.534678,-5.2616261 0.02426,-0.077211 0.02426,-0.077211 0.04901,-0.1559826 1.570752,-4.992073 1.570752,-4.992073 2.853744,-6.6591783 0.04449,-0.059707 0.08899,-0.1194133 0.134834,-0.1809291 0.66983,-0.86271373 1.497657,-1.40340524 2.55889,-1.63723614 0.955034,-0.08421141 1.946899,0.27928998 2.633086,0.95049417 z"
     fill="#000000"
     id="path2"
     style="fill:#4b352a;fill-opacity:1;stroke-width:0.0631033" />
  <path
     d="m 47.983808,16.782457 c 1.129593,0.672164 2.001236,1.667895 2.682631,2.779752 0.06308,0.10225 0.06308,0.10225 0.12744,0.206565 0.982977,1.717707 2.014508,4.434924 1.954971,6.419286 0.662221,-0.342396 1.324071,-0.684861 1.976247,-1.04612 4.142929,-2.292996 4.142929,-2.292996 5.756131,-1.859839 0.693813,0.223356 1.252325,0.596783 1.67002,1.202168 0.526506,1.046612 0.30533,2.130549 -0.03549,3.202495 -0.354834,1.05375 -0.93874,1.973345 -1.605192,2.855427 -0.02904,0.03861 -0.05808,0.07721 -0.088,0.116994 -1.0268,1.356366 -2.214798,2.569529 -3.414236,3.771749 -0.04141,0.04158 -0.08282,0.08316 -0.125481,0.125993 -0.790134,0.792579 -0.790134,0.792579 -1.190446,1.132716 -0.16985,0.147334 -0.325661,0.307837 -0.482519,0.468745 -0.245546,0.248937 -0.495481,0.4859 -0.761923,0.712624 -0.192159,0.170332 -0.369421,0.355123 -0.54969,0.537858 -0.125666,0.123893 -0.254172,0.24007 -0.388233,0.35471 -0.253108,0.216878 -0.485363,0.451473 -0.717801,0.690192 -0.128985,0.125987 -0.258344,0.242999 -0.395119,0.359902 -0.305975,0.266851 -0.592391,0.551484 -0.879026,0.838815 -0.05566,0.0556 -0.111329,0.111209 -0.16868,0.168498 -0.146737,0.146683 -0.293321,0.293518 -0.439853,0.440405 -0.08924,0.08936 -0.178592,0.178592 -0.267997,0.267781 -0.173381,0.172989 -0.34654,0.346199 -0.519632,0.519478 -0.05273,0.0526 -0.105458,0.105203 -0.159785,0.159398 -0.269481,0.270551 -0.529731,0.545069 -0.77742,0.835783 -0.09614,0.109685 -0.197279,0.211932 -0.300951,0.31446 -0.167062,0.192121 -0.214775,0.363806 -0.268189,0.611314 -0.09348,0.429798 -0.245407,0.727719 -0.610821,0.983771 -0.206287,0.119813 -0.39749,0.209926 -0.627582,0.274352 -0.19103,0.07475 -0.26288,0.142111 -0.402284,0.287909 -0.32724,0.342174 -0.638934,0.455672 -1.108257,0.484367 -0.398137,-0.01535 -0.729466,-0.12834 -1.030852,-0.391931 -0.400999,-0.433571 -0.515642,-0.770792 -0.502362,-1.360419 0.06594,-0.613476 0.435992,-0.967334 0.879257,-1.357215 0.153074,-0.115854 0.153074,-0.115854 0.279281,-0.115854 -0.005,-0.04082 -0.0099,-0.08164 -0.01506,-0.123701 -0.123132,-1.011635 -0.245395,-2.02337 -0.366786,-3.035215 -0.05873,-0.489396 -0.117723,-0.978758 -0.177392,-1.468041 -0.389104,-3.192536 -0.698896,-6.380794 -0.816122,-9.596762 -0.0068,-0.187603 -0.01376,-0.3752 -0.02095,-0.56279 -0.05051,-1.330396 -0.07026,-2.659403 -0.07084,-3.990679 -4.6e-5,-0.04932 -1.26e-4,-0.09865 -1.26e-4,-0.149463 -9.15e-4,-1.194181 -4.42e-4,-2.386636 0.09874,-3.577579 0.0037,-0.04571 0.0074,-0.09141 0.01125,-0.138503 0.147735,-1.738992 0.147735,-1.738992 0.663161,-2.219984 0.988203,-0.808239 2.103951,-0.734039 3.185979,-0.129412 z m -1.419086,2.527339 c -0.168458,0.721619 -0.325841,1.442427 -0.425948,2.177065 -0.0073,0.05256 -0.01453,0.105117 -0.02202,0.159268 -0.113148,0.878325 -0.132947,1.756793 -0.131799,2.640942 3.8e-5,0.0549 6.3e-5,0.109806 1.26e-4,0.166373 0.002,1.086679 0.04792,2.166162 0.137923,3.249096 0.004,0.04836 0.008,0.09673 0.01208,0.146554 0.217102,2.610882 0.600638,5.174506 1.122337,7.741441 0.150414,0.740373 0.295255,1.481821 0.440033,2.223315 0.06741,0.345056 0.135112,0.690056 0.202798,1.035058 0.02265,0.115499 0.0453,0.230999 0.06794,0.346499 0.01581,0.08064 0.03162,0.161274 0.04791,0.244355 0.35132,-0.250263 0.663519,-0.519227 0.966516,-0.825766 0.04166,-0.04169 0.08332,-0.08337 0.126237,-0.126324 0.08737,-0.08757 0.174597,-0.175281 0.261673,-0.263142 0.131993,-0.133145 0.264484,-0.265778 0.397061,-0.39834 0.08544,-0.08575 0.170854,-0.171532 0.256235,-0.257344 0.03893,-0.03899 0.07785,-0.07799 0.117957,-0.11817 0.236787,-0.23933 0.462007,-0.485977 0.681556,-0.741229 0.120343,-0.137751 0.248232,-0.265967 0.379484,-0.3933 0.211354,-0.208864 0.410125,-0.423264 0.603425,-0.648782 0.12136,-0.138976 0.245965,-0.274572 0.371472,-0.409802 0.298921,-0.322261 0.583368,-0.651622 0.859044,-0.994247 0.180902,-0.22033 0.368225,-0.434402 0.556098,-0.648781 0.325896,-0.37312 0.636379,-0.755325 0.939648,-1.146953 0.146019,-0.188511 0.295339,-0.374105 0.445544,-0.559287 0.894515,-1.105067 1.714822,-2.26644 2.479888,-3.464291 0.03291,-0.05117 0.06583,-0.102331 0.09974,-0.155046 0.03037,-0.04808 0.06074,-0.09615 0.09204,-0.14568 0.02698,-0.04248 0.05395,-0.08496 0.08174,-0.128734 0.06678,-0.124793 0.100813,-0.236856 0.128764,-0.375107 -0.378197,0.106606 -0.711454,0.290509 -1.056981,0.473275 -0.0644,0.03378 -0.128808,0.06757 -0.195164,0.102374 -0.39064,0.205845 -0.777143,0.417955 -1.161557,0.635146 -0.770812,0.432865 -1.561212,0.811454 -2.39004,1.120085 -0.04778,0.01783 -0.09557,0.03566 -0.144802,0.05403 -0.606993,0.218357 -1.248822,0.417338 -1.866617,0.147112 -0.369728,-0.20381 -0.634694,-0.490827 -0.883447,-0.828231 -0.03143,-0.0364 -0.06287,-0.0728 -0.09525,-0.110308 -0.387674,-0.519507 -0.379051,-1.153254 -0.428671,-1.776337 -0.02757,-0.342509 -0.06087,-0.684457 -0.09404,-1.026462 -0.0064,-0.06629 -0.0127,-0.132588 -0.01925,-0.200891 -0.06896,-0.701494 -0.189299,-1.379363 -0.372438,-2.060476 -0.02465,-0.09394 -0.02465,-0.09394 -0.04979,-0.189772 -0.469838,-1.767654 -1.168353,-3.34987 -2.474342,-4.669185 -0.02082,0 -0.04165,0 -0.0631,0 z"
     fill="#000000"
     id="path4"
     style="fill:#4b352a;fill-opacity:1;stroke-width:0.0631033" />
</svg>
