<?xml version="1.0" encoding="UTF-8" standalone="no"?>
<svg
   version="1.1"
   width="75.000008"
   height="20.161846"
   id="svg6"
   sodipodi:docname="next-arrow.svg"
   inkscape:version="1.2.2 (b0a84865, 2022-12-01)"
   xmlns:inkscape="http://www.inkscape.org/namespaces/inkscape"
   xmlns:sodipodi="http://sodipodi.sourceforge.net/DTD/sodipodi-0.dtd"
   xmlns="http://www.w3.org/2000/svg"
   xmlns:svg="http://www.w3.org/2000/svg">
  <defs
     id="defs10" />
  <sodipodi:namedview
     id="namedview8"
     pagecolor="#505050"
     bordercolor="#eeeeee"
     borderopacity="1"
     inkscape:showpageshadow="0"
     inkscape:pageopacity="0"
     inkscape:pagecheckerboard="0"
     inkscape:deskcolor="#505050"
     showgrid="false"
     inkscape:zoom="1.8032464"
     inkscape:cx="-1.6636661"
     inkscape:cy="-18.300327"
     inkscape:window-width="1309"
     inkscape:window-height="430"
     inkscape:window-x="0"
     inkscape:window-y="25"
     inkscape:window-maximized="0"
     inkscape:current-layer="svg6" />
  <path
     d="m 6.4396766,7.5334715 c 0.26028,10e-6 0.52056,-3.3e-4 0.78084,-0.001 4.5012104,-0.0121 9.0021504,0.11473 15.5656804,0.27432 1.53894,0.0378 3.07788,0.0752 4.61683,0.11246 0.039,9.5e-4 0.0781,0.002 0.11833,0.003 3.9025,0.0946 7.80494,0.18561 11.70827,0.23739 0.15397,0.002 0.30794,0.004 0.46191,0.006 1.06108,0.0143 2.12217,0.0278 3.18326,0.0407 0.20276,0.002 0.40552,0.005 0.60827,0.007 3.4716,0.0426 6.94309,0.0514 10.41492,0.0526 0.32932,1.2e-4 0.65864,2.8e-4 0.98796,5e-4 3.18126,0.002 6.35967,-0.0139 9.5394,-0.12354 0.14575,-0.005 0.29151,-0.01 0.43726,-0.0147 1.45313,-0.0485 2.90558,-0.10718 4.35768,-0.18021 0.063,-0.003 0.12608,-0.006 0.19103,-0.01 0.11507,-0.006 0.23014,-0.0117 0.3452,-0.0178 1.17344,-0.0598 1.17344,-0.0598 1.67311,0.34692 0.25504,0.26224 0.36272,0.55502 0.37704,0.91758 -0.0248,0.48313 -0.19917,0.76392 -0.55115,1.0866795 -0.47288,0.2911 -1.02809,0.27706 -1.56578,0.29838 -0.0902,0.004 -0.18046,0.008 -0.27068,0.0123 -0.2416,0.0109 -0.48322,0.021 -0.72486,0.0309 -0.20175,0.008 -0.40347,0.0172 -0.6052,0.026 -1.23353,0.0537 -2.46729,0.10149 -3.70138,0.14037 -0.0891,0.003 -0.0891,0.003 -0.18005,0.006 -2.09904,0.0651 -4.1983,0.0953 -6.2983,0.094 -0.22945,-1.1e-4 -0.4589,-5e-5 -0.68834,2e-5 -0.54695,1.5e-4 -1.0939,5e-5 -1.64085,-2.3e-4 -0.48672,-2.4e-4 -0.97344,-2.5e-4 -1.46016,0 -3.4431,0.002 -6.88561,-0.0162 -10.32848,-0.0563 -0.13388,-0.002 -0.26776,-0.003 -0.40164,-0.005 -0.91857,-0.0106 -1.83711,-0.0226 -2.75564,-0.0362 -0.25462,-0.004 -0.50925,-0.007 -0.76388,-0.0107 -4.13025,-0.0551 -8.26044,-0.14888 -14.18753,-0.30731 -0.0397,-0.001 -0.0794,-0.002 -0.12026,-0.003 -1.12691,-0.0308 -2.25382,-0.0622 -3.38072,-0.0936 -6.46559,-0.1878 -6.46559,-0.1878 -15.5415304,-0.34216 -0.90763,-0.006 -1.81525,-0.0125 -2.72285,-0.0217 -0.12049,-10e-4 -0.24098,-0.002 -0.36148,-0.003 -0.37856,-0.004 -0.75711,-0.008 -1.13565,-0.013299 -0.11968,-0.002 -0.23937,-0.003 -0.35906,-0.004 -0.16566,-0.002 -0.33128,-0.004 -0.49693,-0.007 -0.0486,-2.5e-4 -0.0972,-5.1e-4 -0.14727,-7.7e-4 -0.43663998,-0.009 -0.83884998,-0.12231 -1.15917998,-0.43451 -0.20133,-0.27332 -0.26969,-0.58614 -0.25617,-0.92218 0.0627,-0.32362 0.18317,-0.5899 0.45569,-0.78769 0.25008,-0.16332 0.44518,-0.24146 0.74580998,-0.24732 0.0455,-9.9e-4 0.091,-0.002 0.1379,-0.003 0.0744,-0.001 0.0744,-0.001 0.15035,-0.002 0.0789,-0.002 0.0789,-0.002 0.15945,-0.003 0.17559,-0.003 0.35118,-0.006 0.52677,-0.009 0.0611,-10e-4 0.1223,-0.002 0.1853,-0.003 1.35889,-0.0235 2.71769,-0.0294 4.07676,-0.0293 z"
     fill="#000000"
     id="path2"
     style="stroke-width:0.0512321;fill:#ffffff;fill-opacity:1" />
  <path
     d="m 65.271517,0.93780146 c 1.5439,0.99229004 3.13336,1.87832004 4.76305,2.71947004 0.0784,0.0404 0.0784,0.0404 0.15828,0.0817 0.0514,0.0265 0.10282,0.0531 0.15579,0.0804 0.36129,0.18767 0.71683,0.38412 1.07058,0.58561 0.77122,0.43887 1.53802,0.83584 2.35568,1.18274 0.0857,0.0369 0.17146,0.0739 0.25716,0.11087 0.0578,0.0248 0.11557,0.0495 0.17511,0.075 0.3949,0.23479 0.68016,0.78919 0.7919,1.22817 0.0158,0.45032 -0.17056,0.8506 -0.34262,1.25839 -0.051,0.12276 -0.10189,0.24558 -0.15269,0.36843 -0.0199,0.0481 -0.0199,0.0481 -0.0403,0.0971 -0.14527,0.35185 -0.28281,0.70667 -0.42088,1.06139 -0.35363,0.9072795 -0.73575,1.7957495 -1.18138,2.6619695 -0.0419,0.0817 -0.0835,0.16358 -0.12493,0.24556 -0.3865,0.76509 -0.80891,1.50056 -1.26586,2.22569 -0.0226,0.0359 -0.0452,0.0719 -0.0684,0.10887 -0.16175,0.25621 -0.32814,0.50926 -0.49514,0.76208 -0.0414,0.0629 -0.0828,0.12585 -0.12425,0.18879 -1.36305,2.06995 -1.36305,2.06995 -2.18119,2.93637 -0.0602,0.0679 -0.12002,0.1362 -0.17932,0.20492 -0.15452,0.1773 -0.31022,0.35347 -0.46749,0.52833 -0.0233,0.0264 -0.0467,0.0529 -0.0707,0.0802 -0.22707,0.25079 -0.43545,0.3848 -0.76858,0.43016 -0.33743,0.0162 -0.59509,-0.075 -0.87055,-0.27016 -0.30509,-0.31744 -0.37817,-0.58674 -0.37243,-1.02185 0.0362,-0.41085 0.32052,-0.71954 0.56062,-1.03915 0.13795,-0.1842 0.27409,-0.36976 0.41058,-0.55504 0.0309,-0.042 0.0619,-0.0839 0.0938,-0.1272 0.57052,-0.77449 1.12716,-1.55767 1.67425,-2.34891 0.0789,-0.11412 0.15805,-0.22812 0.23725,-0.34206 0.94281,-1.35479 0.94281,-1.35479 1.80193,-2.76293 0.0288,-0.0504 0.0288,-0.0504 0.0582,-0.10184 0.51815,-0.91008 0.9967,-1.8408595 1.45319,-2.7831695 0.0152,-0.0313 0.0305,-0.0627 0.0462,-0.095 0.17846,-0.36773 0.34691,-0.73625 0.49177,-1.11858 -0.0596,-0.006 -0.0596,-0.006 -0.12048,-0.0118 -0.25534,-0.0539 -0.48045,-0.15497 -0.71845,-0.26036 -0.0516,-0.0227 -0.10329,-0.0455 -0.1565,-0.0689 -0.94986,-0.42299 -1.86139,-0.90781 -2.7623,-1.42583 -0.16707,-0.0952 -0.33551,-0.1878 -0.5042,-0.28012 -0.42824,-0.23462 -0.84332,-0.48504 -1.25518,-0.74718 -0.13276,-0.0839 -0.26622,-0.16656 -0.3998,-0.24913 -1.00118,-0.61961 -1.9846,-1.2648 -2.94095,-1.9518 -0.11726,-0.0836 -0.23535,-0.16603 -0.35352,-0.24838 -0.0825,-0.0581 -0.16491,-0.11619 -0.24735,-0.17431 -0.0376,-0.026 -0.0753,-0.0519 -0.11405,-0.0787 -0.30406,-0.21615 -0.57618,-0.46455 -0.7505,-0.79866 -0.0483,-0.30170004 -0.0273,-0.56851004 0.11208,-0.84213004 0.88296,-1.02615 1.91046,-0.0816 2.78269,0.48088 z"
     fill="#000000"
     id="path4"
     style="stroke-width:0.0512321;fill:#ffffff;fill-opacity:1" />
</svg>
