<?xml version="1.0" encoding="UTF-8" standalone="no"?>
<svg
   version="1.1"
   width="43.800003"
   height="29.99995"
   id="svg4"
   sodipodi:docname="scribble.svg"
   inkscape:version="1.2.2 (b0a84865, 2022-12-01)"
   xmlns:inkscape="http://www.inkscape.org/namespaces/inkscape"
   xmlns:sodipodi="http://sodipodi.sourceforge.net/DTD/sodipodi-0.dtd"
   xmlns="http://www.w3.org/2000/svg"
   xmlns:svg="http://www.w3.org/2000/svg">
  <defs
     id="defs8" />
  <sodipodi:namedview
     id="namedview6"
     pagecolor="#505050"
     bordercolor="#eeeeee"
     borderopacity="1"
     inkscape:showpageshadow="0"
     inkscape:pageopacity="0"
     inkscape:pagecheckerboard="0"
     inkscape:deskcolor="#505050"
     showgrid="false"
     inkscape:zoom="3.2871332"
     inkscape:cx="46.849334"
     inkscape:cy="24.641533"
     inkscape:window-width="1309"
     inkscape:window-height="430"
     inkscape:window-x="0"
     inkscape:window-y="25"
     inkscape:window-maximized="0"
     inkscape:current-layer="svg4" />
  <path
     d="m 16.649916,0.02070383 c 0.260251,0.10147354 0.432284,0.21643221 0.573059,0.46102192 0.09765,0.22300446 0.135843,0.41715361 0.17035,0.65805095 0.0063,0.043055 0.01256,0.08611 0.01903,0.1304705 0.01313,0.090906 0.02596,0.1818566 0.03851,0.2728463 0.01883,0.1363197 0.03862,0.2724689 0.05861,0.4086243 0.268218,1.8593691 0.233826,3.7534027 0.242079,5.6282036 0.0013,0.2916695 0.003,0.583336 0.0046,0.8750032 0.003,0.5493783 0.0057,1.098758 0.0083,1.6481384 0.003,0.626694 0.0063,1.253388 0.0096,1.880081 0.0068,1.28644 0.01325,2.572882 0.01943,3.859325 0.115586,-0.24766 0.231082,-0.495364 0.346498,-0.743104 0.03917,-0.08403 0.07835,-0.168056 0.117566,-0.252066 0.267552,-0.573263 0.528933,-1.14826 0.772868,-1.732096 0.09123,-0.21813 0.183781,-0.435691 0.276218,-0.653306 0.01895,-0.04466 0.03791,-0.08932 0.05744,-0.135333 0.580159,-1.364183 1.191391,-2.7151502 1.819162,-4.0578582 0.08988,-0.1922901 0.179551,-0.3846777 0.269127,-0.5771117 0.190948,-0.4102027 0.382437,-0.8201453 0.574609,-1.2297722 0.117075,-0.2495999 0.233498,-0.4994978 0.349697,-0.7495098 0.531285,-1.1371808 0.531285,-1.1371808 0.893878,-1.6455842 0.03002,-0.045461 0.06005,-0.090922 0.09099,-0.1377611 0.186978,-0.2718014 0.37024,-0.4851933 0.69145,-0.5868998 0.359743,-0.056711 0.663958,-0.016488 0.981573,0.1644166 0.215476,0.1632704 0.319176,0.3691086 0.402738,0.6206328 -0.005,0.115811 -0.01135,0.2315599 -0.01881,0.3472332 -0.0076,0.2596901 -0.0076,0.2596901 0.09052,0.4913637 0.06247,0.062366 0.125704,0.1239737 0.189673,0.1847921 0.352221,0.4378425 0.395758,1.1603739 0.464631,1.7016378 0.0098,0.074974 0.01969,0.1499484 0.02983,0.2271941 0.314833,2.4873293 0.387529,4.9973637 0.466143,7.5009017 0.0024,0.07248 0.0047,0.144953 0.0071,0.219625 0.0044,0.136418 0.0087,0.272839 0.01271,0.40927 0.01043,0.316386 0.02926,0.623097 0.08229,0.935277 0.349995,-0.79898 0.67572,-1.603754 0.978591,-2.421841 0.10966,-0.295902 0.220559,-0.591335 0.331426,-0.886784 0.03277,-0.08736 0.03277,-0.08736 0.0662,-0.176493 1.272418,-3.3870259 1.272418,-3.3870259 1.956666,-3.7077091 0.346488,-0.1179509 0.739327,-0.1119486 1.075849,0.036795 0.521283,0.3201019 0.730462,0.7669485 0.891529,1.3398681 0.01995,0.06845 0.03992,0.136909 0.06048,0.207437 0.404025,1.425835 0.617565,2.870861 0.77838,4.340565 0.03973,0 0.07945,0 0.120375,0 0.07637,-0.08318 0.07637,-0.08318 0.151644,-0.196262 0.03112,-0.04453 0.06224,-0.08905 0.09429,-0.134931 0.03428,-0.05013 0.06858,-0.100263 0.103902,-0.151914 0.05452,-0.07893 0.05452,-0.07893 0.110133,-0.159464 0.539701,-0.787152 1.057348,-1.589407 1.57681,-2.390073 0.06335,-0.09764 0.126732,-0.195243 0.190125,-0.292847 0.221143,-0.340533 0.441739,-0.681422 0.662092,-1.022475 1.587976,-2.457217 1.587976,-2.457217 2.34731,-3.3817512 0.03002,-0.039 0.06005,-0.078 0.09099,-0.1181819 0.341334,-0.4306749 0.809476,-0.7479601 1.353511,-0.8480322 0.721438,-0.068816 1.256512,0.058092 1.821376,0.5135372 0.692344,0.5978733 1.05553,1.3390031 1.32577,2.1987513 0.01821,0.05775 0.0364,0.1154992 0.05515,0.1749989 0.18838,0.6065777 0.352243,1.2189559 0.508558,1.8345389 0.04777,0.187369 0.09673,0.374403 0.145722,0.561452 0.03106,0.121309 0.06206,0.242636 0.09298,0.363982 0.01449,0.05479 0.02895,0.109597 0.04387,0.166057 0.153606,0.615477 0.167421,1.183851 -0.15672,1.745142 -0.272952,0.398484 -0.640161,0.665309 -1.11676,0.761696 -0.51672,0.05267 -0.967197,-0.05312 -1.395831,-0.348884 -0.545455,-0.481228 -0.69637,-1.098372 -0.817231,-1.793018 -0.01302,-0.07161 -0.02604,-0.143223 -0.03945,-0.217004 -0.0411,-0.226902 -0.08125,-0.45396 -0.121365,-0.681037 -0.02784,-0.15464 -0.05573,-0.309267 -0.0837,-0.463882 -0.06811,-0.377419 -0.135459,-0.75497 -0.202191,-1.1326367 -0.03973,0 -0.07945,0 -0.120375,0 -0.07928,0.084293 -0.07928,0.084293 -0.157524,0.1974407 -0.03119,0.04311 -0.06238,0.08622 -0.09453,0.130641 -0.03351,0.04742 -0.06702,0.09484 -0.10155,0.143702 -0.03487,0.04902 -0.06974,0.09804 -0.105666,0.148539 -0.776515,1.102488 -1.44614,2.271037 -2.075468,3.463075 -0.72181,1.364798 -1.526609,2.760423 -2.590839,3.889997 -0.09358,0.100272 -0.175428,0.201519 -0.257442,0.311141 -0.351663,0.387259 -0.839383,0.735947 -1.365268,0.794721 -0.820557,0.03517 -1.562899,-0.310679 -2.167688,-0.86313 -0.432333,-0.463784 -0.505557,-0.969131 -0.567315,-1.580949 -0.0073,-0.06815 -0.0147,-0.136287 -0.02229,-0.206495 -0.06936,-0.652559 -0.129099,-1.306061 -0.184605,-1.959941 -0.02326,0.05883 -0.0465,0.117663 -0.07046,0.178277 -0.502021,1.267639 -1.022434,2.518752 -1.614789,3.746971 -0.02459,0.05127 -0.04919,0.102541 -0.07453,0.155364 -0.534138,1.109366 -0.534138,1.109366 -0.768096,1.414735 -0.05959,0.01994 -0.11917,0.03985 -0.180561,0.06039 -0.03973,-0.01993 -0.07945,-0.03985 -0.120375,-0.06039 -0.0062,0.06352 -0.01241,0.127042 -0.01881,0.192488 -0.07331,0.407913 -0.264057,0.594058 -0.583067,0.834115 -0.322832,0.10797 -0.655304,0.102089 -0.978046,-0.0038 -0.342082,-0.241816 -0.533221,-0.497019 -0.647015,-0.902052 -0.01258,-0.149797 -0.01931,-0.300144 -0.02185,-0.450451 -0.0013,-0.0658 -0.0013,-0.0658 -0.0027,-0.132926 -0.0028,-0.1453 -0.005,-0.290601 -0.0071,-0.435914 -0.002,-0.103113 -0.004,-0.206225 -0.0061,-0.309336 -0.0044,-0.219291 -0.0085,-0.438584 -0.01235,-0.657884 -0.01032,-0.573869 -0.02343,-1.147676 -0.03685,-1.721479 -0.002,-0.08535 -0.002,-0.08535 -0.004,-0.17243 -0.06773,-2.870971 -0.274172,-5.734161 -0.681305,-8.5778608 -0.0093,-0.0652 -0.01863,-0.1303991 -0.02823,-0.1975744 -0.0082,-0.055164 -0.01634,-0.1103346 -0.02476,-0.1671738 -0.01894,-0.1753535 -0.02021,-0.3465675 -0.01732,-0.5228108 -1.587532,1.4738713 -2.387377,5.0470468 -3.173815,7.0289548 -0.831609,2.095489 -1.677676,4.197314 -2.724555,6.196108 -0.03127,0.06001 -0.06254,0.120036 -0.09475,0.181874 -0.202377,0.365068 -0.404679,0.642457 -0.817939,0.76146 -0.329674,0.05513 -0.606992,0.01898 -0.892936,-0.158284 -0.285367,-0.225448 -0.438281,-0.456566 -0.507832,-0.815243 -0.06194,-0.543753 -0.04903,-1.090753 -0.01985,-1.636267 0.06589,-1.268261 0.05534,-2.537893 0.05403,-3.807464 -3.6e-4,-0.334734 -1.2e-4,-0.669466 1.8e-4,-1.0042 0.0012,-1.364363 2.4e-4,-2.726888 -0.06824,-4.0898491 -0.01115,0.07407 -0.01115,0.07407 -0.02253,0.1496421 -0.552663,3.665556 -1.136993,7.325855 -1.727896,10.985367 -0.04898,0.303389 -0.09792,0.606785 -0.146846,0.910186 -0.103828,0.643896 -0.207839,1.287762 -0.312044,1.931597 -0.03506,0.216614 -0.07006,0.433237 -0.105003,0.649869 -0.102271,0.633738 -0.205667,1.267276 -0.310752,1.900552 -0.02347,0.141756 -0.04676,0.283542 -0.07003,0.425331 -0.03824,0.23246 -0.07724,0.464777 -0.116778,0.697014 -0.01441,0.0852 -0.0286,0.170441 -0.04254,0.25572 -0.10083,0.615194 -0.261439,1.191311 -0.455889,1.781347 -0.03158,0.10435 -0.063,0.208751 -0.09404,0.313264 -0.09863,0.288637 -0.233103,0.466936 -0.485261,0.641627 -0.318905,0.112581 -0.620397,0.14022 -0.942309,0.02076 -0.314805,-0.174428 -0.470938,-0.392331 -0.584947,-0.734097 -0.0204,-0.190475 -0.0069,-0.372059 0.01129,-0.562367 0.0072,-0.09537 0.01432,-0.190754 0.0214,-0.286137 0.0043,-0.05422 0.0086,-0.108438 0.01306,-0.164299 0.06576,-0.887644 0.0869,-1.773431 0.08592,-2.663342 -5.5e-5,-0.09257 -5.5e-5,-0.09257 -1.2e-4,-0.187001 C 10.512097,19.025392 9.8809113,12.648246 7.2606747,2.07391 5.9532062,3.5018348 5.1943208,5.4050547 4.5522387,7.2069254 4.5296217,7.2697071 4.5070062,7.3324885 4.4837052,7.3971727 3.7004423,9.5913656 3.2427632,11.865353 2.7781288,14.143155 2.528895,15.364731 2.528895,15.364731 2.4299258,15.825013 c -0.00873,0.04192 -0.017456,0.08386 -0.026447,0.127054 -0.086635,0.395529 -0.2426275,0.64755 -0.5107722,0.939651 -0.2871098,0.16644 -0.5861614,0.247463 -0.91785864,0.196262 -0.37954388,-0.113214 -0.6479257,-0.292037 -0.8651946,-0.630304 -0.187517,-0.505016 -0.10397441,-0.894889 0.023511,-1.404031 0.025475,-0.105772 0.025475,-0.105772 0.0514644,-0.213679 0.0460711,-0.190259 0.0929071,-0.380305 0.14020308,-0.570261 0.029469,-0.118661 0.0586526,-0.237389 0.0877388,-0.356145 C 3.2726639,2.237609 3.2726639,2.237609 6.0515183,0.51607756 6.6599259,0.19195036 7.2843897,0.03317929 7.9704631,0.17662862 8.6959382,0.40146548 9.1987577,0.98276859 9.5453883,1.6399568 12.023666,6.5560566 11.841668,13.457758 12.196046,19.586551 c 0.598333,-3.315185 1.188184,-6.631642 1.752958,-9.9527662 0.01159,-0.068167 0.02318,-0.1363281 0.03513,-0.2065581 0.111557,-0.6560446 0.222864,-1.3121305 0.333709,-1.9682961 0.01073,-0.063491 0.02146,-0.1269833 0.03251,-0.1923983 0.01072,-0.063475 0.02144,-0.1269491 0.03249,-0.1923472 0.06969,-0.4120564 0.13999,-0.8240017 0.210677,-1.2358863 0.04937,-0.2878213 0.09855,-0.5756766 0.147712,-0.8635345 0.02323,-0.1356784 0.04654,-0.2713414 0.06996,-0.4069863 0.172802,-1.00122 0.317288,-2.0031734 0.430358,-3.0129492 0.0571,-0.4889727 0.122515,-1.01875922 0.513084,-1.35673399 0.301018,-0.20353784 0.535934,-0.22371037 0.895288,-0.17739098 z"
     fill="#000000"
     id="path2"
     style="fill:#4b352a;fill-opacity:1;stroke-width:0.0602881" />
</svg>
