<?xml version="1.0" encoding="UTF-8" standalone="no"?>
<svg
   version="1.1"
   width="52.562458"
   height="50.000004"
   id="svg10"
   sodipodi:docname="smiley-doodle.svg"
   inkscape:version="1.2.2 (b0a84865, 2022-12-01)"
   xmlns:inkscape="http://www.inkscape.org/namespaces/inkscape"
   xmlns:sodipodi="http://sodipodi.sourceforge.net/DTD/sodipodi-0.dtd"
   xmlns="http://www.w3.org/2000/svg"
   xmlns:svg="http://www.w3.org/2000/svg">
  <defs
     id="defs14" />
  <sodipodi:namedview
     id="namedview12"
     pagecolor="#505050"
     bordercolor="#eeeeee"
     borderopacity="1"
     inkscape:showpageshadow="0"
     inkscape:pageopacity="0"
     inkscape:pagecheckerboard="0"
     inkscape:deskcolor="#505050"
     showgrid="false"
     inkscape:zoom="0.14407814"
     inkscape:cx="312.33052"
     inkscape:cy="520.55086"
     inkscape:window-width="1309"
     inkscape:window-height="430"
     inkscape:window-x="0"
     inkscape:window-y="25"
     inkscape:window-maximized="0"
     inkscape:current-layer="svg10" />
  <path
     d="m 23.918517,8.795688e-4 c 0.09115,4.826515e-5 0.182306,9.653031e-5 0.27622,1.462612e-4 5.852449,0.00836494 12.157553,0.54090585 17.466267,3.20987597 0.0774,0.037956 0.154809,0.075911 0.234558,0.115017 2.05273,1.0091795 3.766359,2.2411378 5.356772,3.8787899 0.06569,0.065589 0.131383,0.1311778 0.199066,0.1987542 2.549523,2.5534937 4.214691,5.9019301 4.753254,9.4662581 0.01308,0.08585 0.02615,0.171695 0.03963,0.260144 0.434262,3.058674 0.426801,6.432263 -0.03963,9.484745 -0.02056,0.144331 -0.02056,0.144331 -0.04154,0.291579 -0.62779,4.369284 -2.091298,8.591383 -4.830907,12.089222 -0.03502,0.04473 -0.07004,0.08945 -0.106124,0.135532 -0.556696,0.700206 -1.186009,1.332603 -1.815896,1.966209 -0.04049,0.04091 -0.08098,0.08183 -0.12269,0.123987 -0.54297,0.547315 -1.105641,1.047689 -1.709469,1.52845 -0.09969,0.08371 -0.199056,0.167804 -0.297975,0.252422 -0.910828,0.769346 -1.894593,1.420784 -2.89707,2.063986 -0.05545,0.03581 -0.110894,0.07161 -0.168021,0.108504 -1.575065,1.009158 -3.29211,1.827471 -5.023928,2.527409 -0.09491,0.03836 -0.09491,0.03836 -0.191734,0.0775 -4.472733,1.780179 -9.628519,2.664941 -14.425599,1.999283 -0.07465,-0.0103 -0.1493,-0.02059 -0.226212,-0.0312 -4.869897,-0.69662 -9.538622,-2.513798 -13.1131024,-5.959508 -0.066625,-0.064 -0.066625,-0.064 -0.1345961,-0.129291 C 6.5152743,43.094295 5.9763852,42.513515 5.4771146,41.870952 5.4151291,41.793419 5.3531445,41.715886 5.2892811,41.636003 1.0310667,36.235507 -0.56922933,29.623731 0.17658454,22.825641 0.55876789,19.607158 1.5257364,16.546728 2.8412021,13.594799 c 0.048922,-0.110372 0.048922,-0.110372 0.098831,-0.222974 1.0031692,-2.242546 2.3298216,-4.3537269 3.8949761,-6.2469925 0.034506,-0.04219 0.069012,-0.08438 0.1045643,-0.1278486 1.5853071,-1.9342737 3.3521295,-3.5909324 5.4867645,-4.904348 0.06569,-0.043142 0.131384,-0.086285 0.199067,-0.1307348 3.159331,-2.02643998 7.671079,-1.9645815 11.293112,-1.9610215312 z M 20.493828,2.1675198 c -0.06734,0.01251 -0.134678,0.025021 -0.204058,0.03791 -0.09669,0.019383 -0.09669,0.019383 -0.195323,0.039158 -0.05601,0.011114 -0.112026,0.022228 -0.169737,0.033678 -0.18081,0.06519 -0.26965,0.1445302 -0.389396,0.2936266 0,0.052718 0,0.1054365 0,0.1597523 -0.298037,0.1362287 -0.58574,0.1998686 -0.905237,0.2589539 -0.691943,0.1309413 -1.190817,0.3079954 -1.730675,0.7794359 -0.04623,0.034699 -0.09246,0.069399 -0.140095,0.1051494 -0.545623,0.4143449 -0.816067,0.8988511 -0.924232,1.5745115 -0.01509,0.112524 -0.03002,0.2250716 -0.04477,0.3376406 -0.07558,0.545633 -0.147773,0.9945105 -0.567051,1.3864827 C 14.769986,7.4856584 14.330366,7.5744654 13.789225,7.4842751 13.26993,7.3583854 12.958181,7.0789218 12.665967,6.6455757 12.4404,6.1454076 12.521694,5.6578951 12.58609,5.1279291 11.902485,5.6274114 11.229447,6.1429659 10.640982,6.7535333 10.508143,6.8863719 10.36918,7.0047803 10.224752,7.1248325 9.4095357,7.8290275 8.6963272,8.6759638 8.0331508,9.5211165 7.9731225,9.5956633 7.9130932,9.6702101 7.8512459,9.7470166 5.4243117,12.815101 3.6517061,16.493213 2.761326,20.304395 c -0.020464,0.0867 -0.040929,0.173393 -0.062013,0.262717 -0.7380475,3.183665 -0.9989836,6.644806 -0.4172434,9.881552 0.013708,0.07886 0.027414,0.157717 0.041537,0.238966 0.3933972,2.208159 1.1364761,4.333683 2.1949947,6.310877 0.028096,0.05268 0.056194,0.105359 0.085141,0.159636 0.8406876,1.563868 1.8717791,2.970428 3.0300278,4.313428 0.047364,0.05643 0.094728,0.11285 0.1435278,0.170985 2.7303211,3.216913 6.6041631,4.958519 10.6397501,5.899601 0.107264,0.02516 0.107264,0.02516 0.216696,0.05082 0.457944,0.105086 0.91722,0.192592 1.380827,0.268685 0.07084,0.01194 0.14168,0.02389 0.214667,0.03619 2.399915,0.386654 4.977251,0.356625 7.373566,-0.03619 0.110662,-0.01732 0.110662,-0.01732 0.22356,-0.03499 0.51416,-0.08157 1.024082,-0.178454 1.533715,-0.28452 0.07384,-0.01507 0.147678,-0.03014 0.223755,-0.04567 2.703464,-0.563779 5.408137,-1.528738 7.843735,-2.829869 0.09448,-0.0502 0.09448,-0.0502 0.190876,-0.101406 0.866586,-0.462446 1.712567,-0.943277 2.524913,-1.496117 0.05192,-0.03506 0.10384,-0.07012 0.157334,-0.106242 1.152416,-0.782055 2.22933,-1.650201 3.250194,-2.597379 0.165346,-0.152096 0.334345,-0.29714 0.506402,-0.441502 0.397287,-0.34529 0.742486,-0.739819 1.09272,-1.131488 0.09336,-0.103237 0.188942,-0.204454 0.284831,-0.305346 0.99384,-1.055841 1.775696,-2.29073 2.456504,-3.565409 0.02825,-0.05287 0.0565,-0.105746 0.08561,-0.16022 C 50.95539,29.06867 51.725208,20.87323 49.87795,14.694068 49.358146,13.045786 48.543247,11.528907 47.491963,10.160122 47.438833,10.090102 47.385703,10.020089 47.330962,9.9479506 46.417165,8.7741332 45.341531,7.6034013 44.137164,6.7254518 44.064169,6.671202 44.064169,6.671202 43.989698,6.6158562 42.388992,5.4352643 40.624361,4.5640379 38.7465,3.9189055 38.5756,3.860145 38.405704,3.7993832 38.236002,3.7372731 33.944315,2.2188261 29.209989,1.8345885 24.687325,1.8280462 c -0.07937,-2.875e-4 -0.158734,-5.751e-4 -0.240505,-8.674e-4 -1.331197,-0.0026 -2.646173,0.071861 -3.952992,0.340341 z"
     fill="#000000"
     id="path2"
     style="fill:#4b352a;fill-opacity:1;stroke-width:0.0798761" />
  <path
     d="m 39.104968,26.135353 c 0.356029,0.319669 0.60828,0.67473 0.660928,1.160934 -0.0017,0.522831 -0.06737,0.99041 -0.20164,1.494947 -0.0205,0.07932 -0.04101,0.158644 -0.06213,0.24037 -0.856852,3.227976 -1.816548,6.612489 -3.831831,9.324798 -0.05766,0.07846 -0.115321,0.156919 -0.174729,0.237756 -0.745877,0.957774 -1.663238,1.919844 -2.700812,2.557909 -0.04389,0.02713 -0.08778,0.05426 -0.132997,0.08222 -1.455378,0.882967 -3.092126,1.158385 -4.757935,0.753051 -2.172747,-0.585365 -4.093688,-1.663407 -5.892346,-2.991923 -0.05447,-0.04008 -0.108938,-0.08016 -0.165057,-0.121453 -0.373619,-0.275605 -0.744068,-0.555172 -1.112962,-0.837061 -0.07369,-0.05606 -0.07369,-0.05606 -0.14887,-0.113262 -1.484161,-1.13245 -2.977164,-2.448646 -4.084565,-3.960421 -0.03738,-0.04736 -0.07475,-0.09473 -0.113262,-0.143527 -0.288871,-0.414082 -0.279786,-0.893206 -0.206242,-1.374119 0.171625,-0.444035 0.477771,-0.785993 0.878637,-1.03839 0.502812,-0.170471 0.923876,-0.196249 1.424354,-0.01716 0.450392,0.252383 0.755932,0.602349 1.061791,1.01062 0.07731,0.100294 0.154796,0.200448 0.232452,0.300472 0.03935,0.0507 0.07869,0.101395 0.119229,0.153629 0.927849,1.183276 1.980011,2.325385 3.168485,3.250155 0.173037,0.13496 0.340825,0.272383 0.507963,0.414358 1.774607,1.497771 4.013954,2.874222 6.42566,2.715788 0.23499,-0.04764 0.427072,-0.128941 0.639009,-0.239628 0.08618,-0.03985 0.08618,-0.03985 0.174105,-0.0805 1.535079,-0.800254 2.643992,-2.520477 3.425548,-4.011475 0.06469,-0.122594 0.132146,-0.243724 0.200081,-0.364552 1.08748,-2.011542 1.527218,-4.32096 1.864198,-6.557741 0.01408,-0.09065 0.01408,-0.09065 0.02843,-0.183128 0.01756,-0.113314 0.03447,-0.22673 0.05061,-0.340256 0.08894,-0.568064 0.2971,-0.943687 0.726997,-1.322406 0.656121,-0.448082 1.327142,-0.41647 1.996904,0 z"
     fill="#000000"
     id="path4"
     style="fill:#4b352a;fill-opacity:1;stroke-width:0.0798761" />
  <path
     d="m 16.275058,12.635037 c 0.348817,0.20737 0.630207,0.414815 0.761476,0.814655 0.01323,0.06508 0.02646,0.130161 0.04009,0.197214 0.01626,0.07784 0.03252,0.15567 0.04928,0.235864 0.02626,0.131755 0.02626,0.131755 0.05306,0.26617 0.02003,0.09623 0.04007,0.192455 0.06071,0.291598 0.104838,0.503786 0.20628,1.008255 0.307433,1.512791 0.101041,0.503674 0.203157,1.007124 0.305815,1.510471 0.01794,0.08825 0.03588,0.176496 0.05436,0.26742 0.229437,1.123064 0.479213,2.239413 0.755947,3.351655 0.02074,0.08346 0.02074,0.08346 0.04189,0.168606 0.136357,0.54809 0.274237,1.095759 0.41541,1.642628 0.03955,0.153702 0.0786,0.307533 0.11763,0.461366 0.04778,0.188263 0.09638,0.376319 0.145968,0.564113 0.13901,0.55107 0.20705,0.942903 -0.02354,1.47691 -0.190306,0.236241 -0.336254,0.321614 -0.624032,0.41935 -0.331014,0.01623 -0.574231,-0.04389 -0.863661,-0.204683 -0.420252,-0.46828 -0.513523,-1.18982 -0.659559,-1.785378 -0.03981,-0.162252 -0.08012,-0.324375 -0.120556,-0.486474 -0.05792,-0.232236 -0.115712,-0.464506 -0.173394,-0.696804 -0.580112,-2.333686 -1.209711,-4.645694 -1.922751,-6.942686 -0.06698,-0.216042 -0.133322,-0.432273 -0.199595,-0.648533 -0.02061,-0.06578 -0.04122,-0.131556 -0.06246,-0.199328 -0.167924,-0.550566 -0.312838,-1.118498 -0.07764,-1.670272 0.354036,-0.558155 0.994472,-0.827794 1.618116,-0.546653 z"
     fill="#000000"
     id="path6"
     style="fill:#4b352a;fill-opacity:1;stroke-width:0.0798761" />
  <path
     d="m 33.069327,10.050296 c 0.474059,0.439371 0.60323,0.82437 0.636123,1.44756 0.0051,0.09335 0.01023,0.18671 0.01551,0.282894 0.0053,0.101726 0.01062,0.203451 0.01609,0.30826 0.009,0.163615 0.01808,0.327223 0.02718,0.49083 0.0097,0.174686 0.01932,0.349378 0.02893,0.52407 0.123025,2.226961 0.28895,4.445153 0.507393,6.665066 0.0075,0.07748 0.01503,0.154963 0.02277,0.234794 0.03926,0.40414 0.08061,0.807917 0.124737,1.211556 0.01702,0.16604 0.034,0.332085 0.05094,0.498133 0.0089,0.07616 0.0178,0.152322 0.02696,0.230791 0.04224,0.430478 0.03835,0.702864 -0.213548,1.075934 -0.274477,0.274476 -0.487988,0.391568 -0.878638,0.39938 -0.362186,-0.106158 -0.604811,-0.225419 -0.808058,-0.550569 -0.16578,-0.395348 -0.173721,-0.83934 -0.213483,-1.261933 -0.01155,-0.111484 -0.02325,-0.222953 -0.03508,-0.334409 -0.02521,-0.239147 -0.04972,-0.478351 -0.07368,-0.717626 -0.06417,-0.63921 -0.13335,-1.277882 -0.203259,-1.916486 -0.0072,-0.06575 -0.01434,-0.131494 -0.02173,-0.199233 -0.183868,-1.676815 -0.429584,-3.344205 -0.683109,-5.011695 -0.03414,-0.224922 -0.06795,-0.449893 -0.101756,-0.674865 -0.02315,-0.152677 -0.04696,-0.305253 -0.0708,-0.457823 -0.218678,-1.444841 -0.218678,-1.444841 0.181902,-2.001881 0.422013,-0.500772 1.095738,-0.5116679 1.664606,-0.242748 z"
     fill="#000000"
     id="path8"
     style="fill:#4b352a;fill-opacity:1;stroke-width:0.0798761" />
</svg>
