<?xml version="1.0" encoding="UTF-8" standalone="no"?>
<!-- Created with Inkscape (http://www.inkscape.org/) -->

<svg
   width="150.00272mm"
   height="150mm"
   viewBox="0 0 150.00272 150"
   version="1.1"
   id="svg5"
   xml:space="preserve"
   inkscape:version="1.2.2 (b0a84865, 2022-12-01)"
   sodipodi:docname="Logo.svg"
   xmlns:inkscape="http://www.inkscape.org/namespaces/inkscape"
   xmlns:sodipodi="http://sodipodi.sourceforge.net/DTD/sodipodi-0.dtd"
   xmlns="http://www.w3.org/2000/svg"
   xmlns:svg="http://www.w3.org/2000/svg"><sodipodi:namedview
     id="namedview7"
     pagecolor="#505050"
     bordercolor="#eeeeee"
     borderopacity="1"
     inkscape:showpageshadow="0"
     inkscape:pageopacity="0"
     inkscape:pagecheckerboard="0"
     inkscape:deskcolor="#505050"
     inkscape:document-units="mm"
     showgrid="false"
     inkscape:zoom="0.58932259"
     inkscape:cx="138.29438"
     inkscape:cy="257.92325"
     inkscape:window-width="1440"
     inkscape:window-height="900"
     inkscape:window-x="0"
     inkscape:window-y="0"
     inkscape:window-maximized="0"
     inkscape:current-layer="layer1" /><defs
     id="defs2"><inkscape:path-effect
       effect="powerclip"
       id="path-effect16761"
       is_visible="true"
       lpeversion="1"
       inverse="true"
       flatten="false"
       hide_clip="false"
       message="Use fill-rule evenodd on &lt;b&gt;fill and stroke&lt;/b&gt; dialog if no flatten result after convert clip to paths." /><inkscape:path-effect
       effect="powerclip"
       id="path-effect16757"
       is_visible="true"
       lpeversion="1"
       inverse="true"
       flatten="false"
       hide_clip="false"
       message="Use fill-rule evenodd on &lt;b&gt;fill and stroke&lt;/b&gt; dialog if no flatten result after convert clip to paths." /><inkscape:path-effect
       effect="powerclip"
       id="path-effect16753"
       is_visible="true"
       lpeversion="1"
       inverse="true"
       flatten="false"
       hide_clip="false"
       message="Use fill-rule evenodd on &lt;b&gt;fill and stroke&lt;/b&gt; dialog if no flatten result after convert clip to paths." /><inkscape:path-effect
       effect="powerclip"
       id="path-effect16749"
       is_visible="true"
       lpeversion="1"
       inverse="true"
       flatten="false"
       hide_clip="false"
       message="Use fill-rule evenodd on &lt;b&gt;fill and stroke&lt;/b&gt; dialog if no flatten result after convert clip to paths." /><inkscape:path-effect
       effect="powerclip"
       id="path-effect16687"
       is_visible="true"
       lpeversion="1"
       inverse="true"
       flatten="false"
       hide_clip="false"
       message="Use fill-rule evenodd on &lt;b&gt;fill and stroke&lt;/b&gt; dialog if no flatten result after convert clip to paths." /><inkscape:path-effect
       effect="powerclip"
       id="path-effect16683"
       is_visible="true"
       lpeversion="1"
       inverse="true"
       flatten="false"
       hide_clip="false"
       message="Use fill-rule evenodd on &lt;b&gt;fill and stroke&lt;/b&gt; dialog if no flatten result after convert clip to paths." /><inkscape:path-effect
       effect="powerclip"
       id="path-effect16679"
       is_visible="true"
       lpeversion="1"
       inverse="true"
       flatten="false"
       hide_clip="false"
       message="Use fill-rule evenodd on &lt;b&gt;fill and stroke&lt;/b&gt; dialog if no flatten result after convert clip to paths." /><inkscape:path-effect
       effect="powerclip"
       id="path-effect16675"
       is_visible="true"
       lpeversion="1"
       inverse="true"
       flatten="false"
       hide_clip="false"
       message="Use fill-rule evenodd on &lt;b&gt;fill and stroke&lt;/b&gt; dialog if no flatten result after convert clip to paths." /><clipPath
       clipPathUnits="userSpaceOnUse"
       id="clipPath16659"><ellipse
         style="display:none;fill:#000000;fill-opacity:1;stroke:#9eb384;stroke-width:5.31678;stroke-linecap:round;stroke-dasharray:none"
         id="ellipse16661"
         cx="95.486633"
         cy="119.73325"
         rx="8.8343801"
         ry="8.7982483" /><path
         id="lpe_path-effect16675"
         style="fill:#000000;fill-opacity:1;stroke:#9eb384;stroke-width:5.31678;stroke-linecap:round;stroke-dasharray:none"
         class="powerclip"
         d="M 37.068177,61.330258 H 153.78683 V 179.83558 H 37.068177 Z m 72.292303,58.382682 a 13.927484,13.927484 0 0 0 -13.927481,-13.92749 13.927484,13.927484 0 0 0 -13.927484,13.92749 13.927484,13.927484 0 0 0 13.927484,13.92748 13.927484,13.927484 0 0 0 13.927481,-13.92748 z" /></clipPath><clipPath
       clipPathUnits="userSpaceOnUse"
       id="clipPath16663"><ellipse
         style="display:none;fill:#000000;fill-opacity:1;stroke:#9eb384;stroke-width:5.31678;stroke-linecap:round;stroke-dasharray:none"
         id="ellipse16665"
         cx="95.486633"
         cy="119.73325"
         rx="8.8343801"
         ry="8.7982483" /><path
         id="lpe_path-effect16679"
         style="fill:#000000;fill-opacity:1;stroke:#9eb384;stroke-width:5.31678;stroke-linecap:round;stroke-dasharray:none"
         class="powerclip"
         d="M 37.099431,61.299565 H 153.75559 V 179.86627 H 37.099431 Z m 72.261049,58.413375 a 13.927484,13.927484 0 0 0 -13.927481,-13.92749 13.927484,13.927484 0 0 0 -13.927484,13.92749 13.927484,13.927484 0 0 0 13.927484,13.92748 13.927484,13.927484 0 0 0 13.927481,-13.92748 z" /></clipPath><clipPath
       clipPathUnits="userSpaceOnUse"
       id="clipPath16667"><ellipse
         style="display:none;fill:#000000;fill-opacity:1;stroke:#9eb384;stroke-width:5.31678;stroke-linecap:round;stroke-dasharray:none"
         id="ellipse16669"
         cx="95.486633"
         cy="119.73325"
         rx="8.8343801"
         ry="8.7982483" /><path
         id="lpe_path-effect16683"
         style="fill:#000000;fill-opacity:1;stroke:#9eb384;stroke-width:5.31678;stroke-linecap:round;stroke-dasharray:none"
         class="powerclip"
         d="M 15.031984,112.37979 H 175.0347 v 15.49806 H 15.031984 Z m 94.328496,7.33315 a 13.927484,13.927484 0 0 0 -13.927481,-13.92749 13.927484,13.927484 0 0 0 -13.927484,13.92749 13.927484,13.927484 0 0 0 13.927484,13.92748 13.927484,13.927484 0 0 0 13.927481,-13.92748 z" /></clipPath><clipPath
       clipPathUnits="userSpaceOnUse"
       id="clipPath16671"><ellipse
         style="display:none;fill:#000000;fill-opacity:1;stroke:#9eb384;stroke-width:5.31678;stroke-linecap:round;stroke-dasharray:none"
         id="ellipse16673"
         cx="95.486633"
         cy="119.73325"
         rx="8.8343801"
         ry="8.7982483" /><path
         id="lpe_path-effect16687"
         style="fill:#000000;fill-opacity:1;stroke:#9eb384;stroke-width:5.31678;stroke-linecap:round;stroke-dasharray:none"
         class="powerclip"
         d="M 87.031984,39.279188 H 103.23185 V 199.27918 H 87.031984 Z m 22.328496,80.433752 a 13.927484,13.927484 0 0 0 -13.927481,-13.92749 13.927484,13.927484 0 0 0 -13.927484,13.92749 13.927484,13.927484 0 0 0 13.927484,13.92748 13.927484,13.927484 0 0 0 13.927481,-13.92748 z" /></clipPath><filter
       id="mask-powermask-path-effect16709_inverse"
       inkscape:label="filtermask-powermask-path-effect16709"
       style="color-interpolation-filters:sRGB"
       height="100"
       width="100"
       x="-50"
       y="-50"><feColorMatrix
         id="mask-powermask-path-effect16709_primitive1"
         values="1"
         type="saturate"
         result="fbSourceGraphic" /><feColorMatrix
         id="mask-powermask-path-effect16709_primitive2"
         values="-1 0 0 0 1 0 -1 0 0 1 0 0 -1 0 1 0 0 0 1 0 "
         in="fbSourceGraphic" /></filter><filter
       id="mask-powermask-path-effect16714_inverse"
       inkscape:label="filtermask-powermask-path-effect16714"
       style="color-interpolation-filters:sRGB"
       height="100"
       width="100"
       x="-50"
       y="-50"><feColorMatrix
         id="mask-powermask-path-effect16714_primitive1"
         values="1"
         type="saturate"
         result="fbSourceGraphic" /><feColorMatrix
         id="mask-powermask-path-effect16714_primitive2"
         values="-1 0 0 0 1 0 -1 0 0 1 0 0 -1 0 1 0 0 0 1 0 "
         in="fbSourceGraphic" /></filter><filter
       id="mask-powermask-path-effect16719_inverse"
       inkscape:label="filtermask-powermask-path-effect16719"
       style="color-interpolation-filters:sRGB"
       height="100"
       width="100"
       x="-50"
       y="-50"><feColorMatrix
         id="mask-powermask-path-effect16719_primitive1"
         values="1"
         type="saturate"
         result="fbSourceGraphic" /><feColorMatrix
         id="mask-powermask-path-effect16719_primitive2"
         values="-1 0 0 0 1 0 -1 0 0 1 0 0 -1 0 1 0 0 0 1 0 "
         in="fbSourceGraphic" /></filter><filter
       id="mask-powermask-path-effect16724_inverse"
       inkscape:label="filtermask-powermask-path-effect16724"
       style="color-interpolation-filters:sRGB"
       height="100"
       width="100"
       x="-50"
       y="-50"><feColorMatrix
         id="mask-powermask-path-effect16724_primitive1"
         values="1"
         type="saturate"
         result="fbSourceGraphic" /><feColorMatrix
         id="mask-powermask-path-effect16724_primitive2"
         values="-1 0 0 0 1 0 -1 0 0 1 0 0 -1 0 1 0 0 0 1 0 "
         in="fbSourceGraphic" /></filter><clipPath
       clipPathUnits="userSpaceOnUse"
       id="clipPath16733"><circle
         style="display:none;fill:#000000;fill-opacity:1;stroke:#9eb384;stroke-width:5.53955;stroke-linecap:round;stroke-dasharray:none"
         id="circle16735"
         cx="95.432999"
         cy="119.71294"
         r="13.927484"
         d="M 109.36048,119.71294 A 13.927484,13.927484 0 0 1 95.432999,133.64042 13.927484,13.927484 0 0 1 81.505515,119.71294 13.927484,13.927484 0 0 1 95.432999,105.78545 13.927484,13.927484 0 0 1 109.36048,119.71294 Z" /><path
         id="lpe_path-effect16749"
         style="fill:#000000;fill-opacity:1;stroke:#9eb384;stroke-width:5.53955;stroke-linecap:round;stroke-dasharray:none"
         class="powerclip"
         d="M 37.068177,61.330258 H 153.78683 V 179.83558 H 37.068177 Z m 72.292303,58.382682 a 13.927484,13.927484 0 0 0 -13.927481,-13.92749 13.927484,13.927484 0 0 0 -13.927484,13.92749 13.927484,13.927484 0 0 0 13.927484,13.92748 13.927484,13.927484 0 0 0 13.927481,-13.92748 z" /></clipPath><clipPath
       clipPathUnits="userSpaceOnUse"
       id="clipPath16737"><circle
         style="display:none;fill:#000000;fill-opacity:1;stroke:#9eb384;stroke-width:5.53955;stroke-linecap:round;stroke-dasharray:none"
         id="circle16739"
         cx="95.432999"
         cy="119.71294"
         r="13.927484"
         d="M 109.36048,119.71294 A 13.927484,13.927484 0 0 1 95.432999,133.64042 13.927484,13.927484 0 0 1 81.505515,119.71294 13.927484,13.927484 0 0 1 95.432999,105.78545 13.927484,13.927484 0 0 1 109.36048,119.71294 Z" /><path
         id="lpe_path-effect16753"
         style="fill:#000000;fill-opacity:1;stroke:#9eb384;stroke-width:5.53955;stroke-linecap:round;stroke-dasharray:none"
         class="powerclip"
         d="M 37.099431,61.299565 H 153.75559 V 179.86627 H 37.099431 Z m 72.261049,58.413375 a 13.927484,13.927484 0 0 0 -13.927481,-13.92749 13.927484,13.927484 0 0 0 -13.927484,13.92749 13.927484,13.927484 0 0 0 13.927484,13.92748 13.927484,13.927484 0 0 0 13.927481,-13.92748 z" /></clipPath><clipPath
       clipPathUnits="userSpaceOnUse"
       id="clipPath16741"><circle
         style="display:none;fill:#000000;fill-opacity:1;stroke:#9eb384;stroke-width:5.53955;stroke-linecap:round;stroke-dasharray:none"
         id="circle16743"
         cx="95.432999"
         cy="119.71294"
         r="13.927484"
         d="M 109.36048,119.71294 A 13.927484,13.927484 0 0 1 95.432999,133.64042 13.927484,13.927484 0 0 1 81.505515,119.71294 13.927484,13.927484 0 0 1 95.432999,105.78545 13.927484,13.927484 0 0 1 109.36048,119.71294 Z" /><path
         id="lpe_path-effect16757"
         style="fill:#000000;fill-opacity:1;stroke:#9eb384;stroke-width:5.53955;stroke-linecap:round;stroke-dasharray:none"
         class="powerclip"
         d="M 15.031984,112.37979 H 175.0347 v 15.49806 H 15.031984 Z m 94.328496,7.33315 a 13.927484,13.927484 0 0 0 -13.927481,-13.92749 13.927484,13.927484 0 0 0 -13.927484,13.92749 13.927484,13.927484 0 0 0 13.927484,13.92748 13.927484,13.927484 0 0 0 13.927481,-13.92748 z" /></clipPath><clipPath
       clipPathUnits="userSpaceOnUse"
       id="clipPath16745"><circle
         style="display:none;fill:#000000;fill-opacity:1;stroke:#9eb384;stroke-width:5.53955;stroke-linecap:round;stroke-dasharray:none"
         id="circle16747"
         cx="95.432999"
         cy="119.71294"
         r="13.927484"
         d="M 109.36048,119.71294 A 13.927484,13.927484 0 0 1 95.432999,133.64042 13.927484,13.927484 0 0 1 81.505515,119.71294 13.927484,13.927484 0 0 1 95.432999,105.78545 13.927484,13.927484 0 0 1 109.36048,119.71294 Z" /><path
         id="lpe_path-effect16761"
         style="fill:#000000;fill-opacity:1;stroke:#9eb384;stroke-width:5.53955;stroke-linecap:round;stroke-dasharray:none"
         class="powerclip"
         d="M 87.031984,39.279188 H 103.23185 V 199.27918 H 87.031984 Z m 22.328496,80.433752 a 13.927484,13.927484 0 0 0 -13.927481,-13.92749 13.927484,13.927484 0 0 0 -13.927484,13.92749 13.927484,13.927484 0 0 0 13.927484,13.92748 13.927484,13.927484 0 0 0 13.927481,-13.92748 z" /></clipPath></defs><g
     inkscape:label="Layer 1"
     inkscape:groupmode="layer"
     id="layer1"
     transform="translate(-20.031984,-44.279188)"><circle
       style="fill:none;stroke:#050704;stroke-width:5.32914;stroke-dasharray:none;stroke-opacity:1"
       id="path7634"
       cx="95.486084"
       cy="119.73329"
       r="57.335426" /><circle
       style="fill:none;stroke:#000000;stroke-width:5.29167;stroke-linecap:round;stroke-dasharray:none;stroke-opacity:1"
       id="path7634-3"
       cx="95.486038"
       cy="119.73325"
       r="42.594364" /><path
       style="fill:none;stroke:#000000;stroke-width:5.28465;stroke-linecap:round;stroke-linejoin:miter;stroke-dasharray:none;stroke-opacity:1"
       d="M 94.674309,46.921513 95.589525,191.63686"
       id="path9201"
       clip-path="url(#clipPath16745)"
       inkscape:path-effect="#path-effect16687;#path-effect16761"
       inkscape:original-d="M 94.674309,46.921513 95.589525,191.63686" /><path
       style="fill:none;stroke:#000000;stroke-width:5.28465;stroke-linecap:round;stroke-linejoin:miter;stroke-dasharray:none;stroke-opacity:1"
       d="M 22.674309,120.23553 167.39238,120.02211"
       id="path9201-5"
       clip-path="url(#clipPath16741)"
       inkscape:path-effect="#path-effect16683;#path-effect16757"
       inkscape:original-d="M 22.674309,120.23553 167.39238,120.02211" /><path
       style="fill:none;stroke:#000000;stroke-width:5.28465;stroke-linecap:round;stroke-linejoin:miter;stroke-dasharray:none;stroke-opacity:1"
       d="M 44.741756,68.94189 146.11327,172.22395"
       id="path9201-5-5"
       clip-path="url(#clipPath16737)"
       inkscape:path-effect="#path-effect16679;#path-effect16753"
       inkscape:original-d="M 44.741756,68.94189 146.11327,172.22395" /><path
       style="fill:none;stroke:#000000;stroke-width:5.28465;stroke-linecap:round;stroke-linejoin:miter;stroke-dasharray:none;stroke-opacity:1"
       d="M 146.14451,68.972583 44.710502,172.19326"
       id="path9201-5-5-6"
       clip-path="url(#clipPath16733)"
       inkscape:path-effect="#path-effect16675;#path-effect16749"
       inkscape:original-d="M 146.14451,68.972583 44.710502,172.19326" /><circle
       style="fill:none;stroke:#000000;stroke-width:5.29167;stroke-dasharray:none;stroke-opacity:1"
       id="path7634-3-9"
       cx="95.486084"
       cy="119.73329"
       r="14.054192" /></g></svg>
